<?xml version="1.0" encoding="UTF-8"?>
<svg id="Layer_2" data-name="Layer 2" xmlns="http://www.w3.org/2000/svg" xmlns:xlink="http://www.w3.org/1999/xlink" viewBox="0 0 141.582633 116.1759293">
  <defs>
    <style>
      .cls-1 {
        fill: url(#linear-gradient-2);
      }

      .cls-2, .cls-3 {
        fill: #fff;
      }

      .cls-3 {
        fill-rule: evenodd;
      }

      .cls-4 {
        fill: #fafafa;
      }

      .cls-5 {
        fill: none;
        stroke: url(#linear-gradient);
        stroke-miterlimit: 10;
        stroke-width: 1.4px;
      }
    </style>
    <linearGradient id="linear-gradient" x1="32.0037951" y1="-1032.8990351" x2="109.6243426" y2="-1077.9379406" gradientTransform="translate(0 -1010.7467743) scale(1 -1)" gradientUnits="userSpaceOnUse">
      <stop offset="0" stop-color="#0071bc"/>
      <stop offset="1" stop-color="#662d91"/>
    </linearGradient>
    <linearGradient id="linear-gradient-2" x1="43.2740771" y1="-1028.1535431" x2="98.0928754" y2="-1082.9723414" gradientTransform="translate(0 -1010.7467743) scale(1 -1)" gradientUnits="userSpaceOnUse">
      <stop offset="0" stop-color="#bc5baf"/>
      <stop offset="1" stop-color="#4d28a9"/>
    </linearGradient>
  </defs>
  <g id="Layer_3" data-name="Layer 3">
    <g>
      <path d="M23.4314859,112.3242098c-4.2165591-.3228179-5.3976368-5.328367-4.23196-8.712744,1.2011206-3.4872832,5.5684841-4.5898609,8.0558483-1.7410248v-6.2398465h4.1493256v16.3694675h-4.0679663v-1.3776284c-.2582494.1381729-.3577913.4197155-.5677124.6095731-.6489152.586894-1.738496,1.0133883-2.6053013,1.0922032-.2107057.0191586-.5195077.0162862-.7322339,0ZM24.6306335,103.4294456c-1.6206318.2722713-1.7302634,2.3747501-1.5958438,3.6578195.2929559,2.7963406,3.9399968,2.8559882,4.219156-.1534351.1684817-1.8162855-.3393913-3.8880904-2.6233122-3.5043844Z"/>
      <path d="M0,111.9190249l6.6725489-14.2618536,1.8592971,4.2536172c-.8773094,2.1714991-1.8339103,4.3121215-2.7889244,6.4525027-.1820061.4079126-.1284394.3675563-.2485717.8033277-.2438425.8845213-.9782537,1.8890185-1.1914477,2.8239007l-4.3029021.0095422v-.081037Z"/>
      <polyline points="11.1066368 95.7105473 18.7126456 112.0000617 14.4005998 112.0000617 13.0897084 108.7681265 6.99671 108.6767321 8.2349678 105.4529795 11.5526128 105.3545872 9.3152418 100.0878996 8.9079205 99.0716353 7.4847962 95.7641889"/>
    </g>
    <g>
      <path d="M34.4927892,112.000148v-16.355957h7.0996094c1.2060547,0,2.2275391.2011719,3.0625.6030273.8349609.4023438,1.46875.9824219,1.9023438,1.7402344.4326172.7578125.6494141,1.6782227.6494141,2.7607422,0,1.0673828-.2167969,1.9833984-.6494141,2.7490234-.4335938.765625-1.0673828,1.3535156-1.9023438,1.7636719-.8349609.4091797-1.8564453.6142578-3.0625.6142578h-4.1298828v6.125h-2.9697266ZM37.4625158,103.5323746h3.6660156c1.0517578,0,1.8476562-.2363281,2.3896484-.7080078.5410156-.4711914.8115234-1.1635742.8115234-2.0761719s-.2705078-1.6010742-.8115234-2.0649414c-.5419922-.4638672-1.3378906-.6958008-2.3896484-.6958008h-3.6660156v5.5449219Z"/>
      <path d="M49.1090001,112.000148v-11.3447266h2.8310547v2.7373047h-.2324219c.2167969-.9277344.6416016-1.6352539,1.2763672-2.1225586.6337891-.4873047,1.4765625-.769043,2.5283203-.8466797l.8818359-.0698242.1855469,2.4589844-1.6708984.1621094c-.9433594.09375-1.6552734.3837891-2.1337891.8701172-.4794922.4873047-.7197266,1.171875-.7197266,2.0537109v6.1015625h-2.9462891Z"/>
      <path d="M63.1910314,112.2325699c-1.1757812,0-2.1962891-.2402344-3.0625-.7197266s-1.5390625-1.1630859-2.0185547-2.0527344-.71875-1.9375-.71875-3.1435547c0-1.2070312.2392578-2.2509766.71875-3.1328125.4794922-.8813477,1.1523438-1.5615234,2.0185547-2.0410156s1.8867188-.7192383,3.0625-.7192383c1.1748047,0,2.1962891.2397461,3.0625.7192383s1.5390625,1.159668,2.0185547,2.0410156c.4785156.8818359.71875,1.9257812.71875,3.1328125,0,1.2060547-.2402344,2.2539062-.71875,3.1435547-.4794922.8896484-1.1523438,1.5732422-2.0185547,2.0527344s-1.8876953.7197266-3.0625.7197266ZM63.1910314,110.0284683c.8662109,0,1.5615234-.3134766,2.0878906-.9394531.5253906-.6269531.7890625-1.5507812.7890625-2.7724609,0-1.2373047-.2636719-2.1621094-.7890625-2.7724609-.5263672-.6113281-1.2216797-.9169922-2.0878906-.9169922s-1.5625.3056641-2.0878906.9169922c-.5263672.6103516-.7890625,1.5351562-.7890625,2.7724609,0,1.2216797.2626953,2.1455078.7890625,2.7724609.5253906.6259766,1.2216797.9394531,2.0878906.9394531Z"/>
      <path d="M71.4273595,112.000148v-11.3447266h2.8300781v2.2734375h-.2548828c.2001953-.5253906.4785156-.9741211.8349609-1.3457031.3554688-.3710938.78125-.6572266,1.2763672-.8583984.4941406-.2006836,1.0439453-.3012695,1.6464844-.3012695.9130859,0,1.6630859.2167969,2.2509766.6494141.5869141.4331055.9970703,1.0986328,1.2294922,1.9956055h-.3251953c.3095703-.8198242.8203125-1.4658203,1.53125-1.9375s1.53125-.7075195,2.4589844-.7075195c.8662109,0,1.5820312.1704102,2.1464844.5102539.5644531.340332.9863281.8549805,1.2646484,1.5429688.2783203.6884766.4169922,1.5585938.4169922,2.609375v6.9140625h-2.8994141v-6.7978516c0-.8662109-.1435547-1.5-.4296875-1.9023438-.2861328-.4013672-.7695312-.6025391-1.4501953-.6025391-.4951172,0-.9277344.1191406-1.2988281.359375-.3710938.2392578-.6533203.5839844-.8466797,1.0322266s-.2900391.9902344-.2900391,1.6240234v6.2871094h-2.9003906v-6.7978516c0-.8662109-.1425781-1.5-.4287109-1.9023438-.2861328-.4013672-.7617188-.6025391-1.4267578-.6025391-.5107422,0-.9482422.1191406-1.3105469.359375-.3642578.2392578-.6425781.5839844-.8359375,1.0322266s-.2900391.9902344-.2900391,1.6240234v6.2871094h-2.8994141Z"/>
      <path d="M91.7271642,116.1759293v-15.5205078h2.8310547v2.3896484h-.2324219c.2324219-.7890625.7080078-1.4228516,1.4267578-1.9023438s1.5576172-.7192383,2.5175781-.7192383c.9892578,0,1.859375.2397461,2.609375.7192383s1.3339844,1.15625,1.7519531,2.0302734.6259766,1.921875.6259766,3.1435547c0,1.2060547-.2080078,2.2539062-.6259766,3.1435547s-.9980469,1.5732422-1.7402344,2.0527344-1.6162109.7197266-2.6210938.7197266c-.9443359,0-1.7714844-.2363281-2.4824219-.7080078-.7119141-.4716797-1.1914062-1.0869141-1.4384766-1.8447266h.2783203v6.4960938h-2.9003906ZM97.457633,110.0284683c.8662109,0,1.5625-.3134766,2.0878906-.9394531.5253906-.6269531.7890625-1.5507812.7890625-2.7724609,0-1.2373047-.2636719-2.1621094-.7890625-2.7724609-.5253906-.6113281-1.2216797-.9169922-2.0878906-.9169922s-1.5625.3056641-2.0878906.9169922c-.5263672.6103516-.7890625,1.5351562-.7890625,2.7724609,0,1.2216797.2626953,2.1455078.7890625,2.7724609.5253906.6259766,1.2216797.9394531,2.0878906.9394531Z"/>
      <path d="M110.7281408,112.2325699c-1.5166016,0-2.6455078-.3789062-3.3876953-1.1376953-.7421875-.7568359-1.1132812-1.8632812-1.1132812-3.3173828v-4.9414062h-2.1806641v-2.1806641h2.1806641v-3.387207h2.8994141v3.387207h3.4345703v2.1806641h-3.4345703v4.7792969c0,.7421875.1630859,1.2988281.4873047,1.6699219.3251953.3720703.8505859.5576172,1.578125.5576172.2158203,0,.4404297-.0273438.6728516-.0820312.2314453-.0537109.4716797-.1113281.71875-.1738281l.4414062,2.1347656c-.2783203.1542969-.6308594.2783203-1.0556641.3710938-.4257812.0927734-.8398438.1396484-1.2412109.1396484Z"/>
      <path d="M114.6021642,112.000148v-3.2246094h3.2480469v3.2246094h-3.2480469Z"/>
      <path d="M119.5894689,112.000148l7.4003906-16.355957h2.4365234l7.4003906,16.355957h-3.015625l-1.9726562-4.59375,1.2529297.8125h-9.7900391l1.2529297-.8125-1.9492188,4.59375h-3.015625ZM128.1734533,98.8688004l-3.2480469,7.7260742-.6035156-.7431641h7.7490234l-.5800781.7431641-3.2714844-7.7260742h-.0458984Z"/>
      <path d="M138.6129064,112.000148v-16.355957h2.9697266v16.355957h-2.9697266Z"/>
    </g>
    <g id="Layer_1-2" data-name="Layer 1-2">
      <path class="cls-4" d="M107.2444541,20.9518183L73.1737352,1.4147621c-.7147685-.4765135-1.6677993-.7147704-2.3825679-.7147704s-1.6677971,0-2.3825679.7147704l-34.0707206,19.5370562c-.7147704.4765131-1.4295408.9530262-1.6677975,1.6677971-.4765135.7147708-.7147704,1.6677971-.7147704,2.3825679v39.3123701c0,.9530262,0,1.6677993.7147704,2.3825679.4765135.7147685.9530272,1.4295416,1.6677975,1.6677993l34.0707206,19.5370539c.7147708.4765154,1.6677993.7147685,2.3825679.7147685s1.6677993,0,2.3825679-.7147685l34.0707189-19.5370585c.7147685-.4765154,1.4295371-.9530262,1.6677993-1.6677993.4765154-.7147685.7147685-1.6677993.7147685-2.3825679V25.2404409c0-.9530262,0-1.6677971-.7147685-2.3825679-.4765154-.7147708-.9530308-1.4295416-1.6677993-1.6677971v-.2382577Z"/>
      <path class="cls-5" d="M107.2444524,20.9518158L73.1737356,1.4147675c-.7147675-.4765167-1.6678009-.7147675-2.3825684-.7147675s-1.2811661.1905518-2.3825684.7147675l-34.0707207,19.5370483c-.7147713.4765167-1.3283234.9329529-1.7214966,1.5451202-.4642258.7228088-.6610718,1.7904816-.6610718,2.505249v39.3123627c0,.9530258.1624222,1.5326767.7147713,2.3825684.4765129.7147675,1.1271515,1.2705688,1.6677971,1.6678009l34.0707207,19.537056c.7147675.4765167,1.6678009.7147675,2.3825684.7147675s1.5030594-.1744995,2.3825684-.7147675l34.0707169-19.5370636c.7147675-.4765091,1.2655487-1.1073303,1.6678009-1.6677933.5232849-.8437881.7147675-1.6678009.7147675-2.3825684V25.240451c0-.9530334-.1483307-1.8158569-.651062-2.6329956-.4280701-.6956635-.6668091-.9299011-1.2796021-1.3607025l-.4519043-.2949371Z"/>
      <path class="cls-1" d="M103.6706023,23.0961307l-30.4968671-17.6310026c-.8233093-.5054203-1.5413944-.7147703-2.3825679-.7147703-.9530262,0-1.3893541.1170708-2.3825679.7147703l-30.4968688,17.6310026c-.7147703.4765131-1.44698.999193-1.8325813,1.5869813-.4308511.6861702-.5499865,1.5103574-.5499865,2.4633836v35.2620052c0,.9530262.0632844,1.9208878.5420078,2.6389729.4765137.7147685.8856383.8856383,1.8405601,1.4113943l30.4968688,17.6310014c.7147708.4765154,1.4295416.7147685,2.3825679.7147685s1.5672373-.2252494,2.3825679-.7147685l30.4968671-17.6310014c.7147685-.4765154,1.2846181-1.0193084,1.6677993-1.6677993.3472575-.6121156.7147685-1.4295416.7147685-2.3825679V27.1464957c0-1.0285331-.0118771-1.5994546-.562409-2.365412-.5186021-.7215334-1.2254413-1.2725017-1.8201589-1.6849529Z"/>
      <g>
        <path class="cls-3" d="M44.3914665,30.4456536c-.3769325-.3773911-.5884665-.8890652-.5880542-1.4224305.0004123-.5333657.2127317-1.0447183.5902589-1.4215116l2.1823504-2.1781303c.8630842-.8614152,2.2595983-.8648187,3.126871-.0076205l15.5747547,15.3938336c1.8495447,1.9906777,1.7409545,3.2919674.009419,5.1461556l-16.0495979,15.9716279c-.6121944.6092203-1.6012715.6103082-2.2148046.0024361l-2.9617673-2.9344397c-.6156912-.6100103-.6213659-1.6033019-.0126848-2.2203072l13.048758-13.2272085c.1049715-.1064071.10444-.277572-.0011904-.383325l-12.7043184-12.7190778.0000056-.0000021ZM60.993449,64.9176789c-.5342387.0006423-1.0467841-.2113966-1.4244515-.589294s-.5893837-.8906279-.5883739-1.4248666l.0064736-3.4697267c.0018687-1.0015653.8136783-1.8128461,1.8152447-1.814062l35.2838578-.0428348c.5343285-.0006423,1.0469244.2114443,1.4245917.5893865.3777123.3778974.5894286.8906279.5884188,1.4249592l-.0069312,3.7145613c-.0016162.8661502-.703667,1.5677426-1.5698181,1.568793l-35.5290176.043087.0000056-.0000028Z"/>
        <path class="cls-2" d="M86.9595796,54.1071245l-1.1063297-3.2462016h-8.5738827l1.8174931-5.8878428h4.7413706l-7.0132647-20.5740272h8.5146462l10.4507232,29.7080715h-8.8307561ZM66.5125906,54.1071245l9.3641581-28.3648577,3.8720403,11.7981386-4.8006061,16.5667191h-8.4355923Z"/>
      </g>
    </g>
  </g>
</svg>