<?xml version="1.0" encoding="UTF-8"?>
<svg version="1.1" xmlns="http://www.w3.org/2000/svg" width="400" height="400">
<path d="M0 0 C1.0621875 0.16628906 2.124375 0.33257812 3.21875 0.50390625 C9.49587622 1.62785115 14.05068578 2.5902369 17.828125 7.9453125 C19.51318005 10.89977569 21.00610167 13.92049868 22.45703125 16.99609375 C24.41230505 20.80269008 26.65214784 24.38472032 28.9375 28 C29.58827515 29.03713135 29.58827515 29.03713135 30.25219727 30.09521484 C32.13783553 33.09132799 34.0429196 36.06396351 36.015625 39.00390625 C38.4610103 42.74625993 39.91787794 45.19246642 40.375 49.6875 C38.35642054 54.55044142 35.09449563 56.82643462 31 60 C30.20335937 60.68964844 29.40671875 61.37929688 28.5859375 62.08984375 C3.52297579 83.63187579 3.52297579 83.63187579 -7.265625 82.83203125 C-10.9740047 81.70362428 -14.2165424 79.91614316 -17.5625 78 C-18.26995361 77.59628174 -18.97740723 77.19256348 -19.70629883 76.77661133 C-28.98150299 71.38083388 -37.20172746 64.88708546 -45.1875 57.75 C-45.75299561 57.25459717 -46.31849121 56.75919434 -46.90112305 56.2487793 C-50.13178541 53.27880727 -51.64823013 51.38334053 -52 47 C-51.18652344 44.80615234 -51.18652344 44.80615234 -49.859375 42.5859375 C-49.37082031 41.75118896 -48.88226563 40.91644043 -48.37890625 40.05639648 C-47.84136719 39.17153564 -47.30382812 38.2866748 -46.75 37.375 C-45.6405027 35.49877023 -44.53113056 33.62246645 -43.421875 31.74609375 C-42.56819336 30.31885986 -42.56819336 30.31885986 -41.69726562 28.86279297 C-40.06191942 26.10444004 -38.46845286 23.3267368 -36.890625 20.53515625 C-36.40368164 19.67680176 -35.91673828 18.81844727 -35.41503906 17.93408203 C-34.49189929 16.30536786 -33.57182947 14.6749087 -32.65527344 13.04248047 C-27.40045812 3.87360935 -27.40045812 3.87360935 -21.42578125 1.69921875 C-20.05974113 1.34205912 -18.68817673 1.0055285 -17.3125 0.6875 C-16.59280029 0.51726318 -15.87310059 0.34702637 -15.1315918 0.17163086 C-9.75147252 -1.01322214 -5.39039298 -1.26452712 0 0 Z " fill="#743FDC" transform="translate(210,226)"/>
<path d="M0 0 C1.79516602 0.18334961 1.79516602 0.18334961 4 1 C5.65991211 3.18969727 5.65991211 3.18969727 7.27734375 6.06640625 C7.87353516 7.10990234 8.46972656 8.15339844 9.08398438 9.22851562 C10.00147461 10.87883789 10.00147461 10.87883789 10.9375 12.5625 C12.15390122 14.71022857 13.37132952 16.85737579 14.58984375 19.00390625 C15.45391846 20.55295654 15.45391846 20.55295654 16.33544922 22.13330078 C18.13258273 25.22833476 20.10502544 28.14174621 22.25219727 31.00366211 C23.46034687 34.2289443 22.75216085 36.69058071 22 40 C20.56396484 43.04418945 20.56396484 43.04418945 18.7109375 46.11328125 C18.37571579 46.67651596 18.04049408 47.23975067 17.69511414 47.8200531 C16.59879275 49.65732007 15.48690238 51.48462893 14.375 53.3125 C13.60341028 54.60044349 12.83316498 55.88919328 12.06420898 57.17871094 C10.88165172 59.16140026 9.69825616 61.14353203 8.51054382 63.12313843 C4.61372163 69.61968822 0.83159814 76.17861476 -2.9375 82.75 C-7.53695874 90.74586157 -12.16108667 98.72549876 -16.85717773 106.66503906 C-17.21755127 107.27444336 -17.5779248 107.88384766 -17.94921875 108.51171875 C-18.2961377 109.08720459 -18.64305664 109.66269043 -19.00048828 110.25561523 C-20.03373017 112.00679776 -20.03373017 112.00679776 -20.91748047 113.93383789 C-22.56583005 117.29067368 -23.58264715 118.81540163 -27.046875 120.34765625 C-28.87992188 120.70150391 -28.87992188 120.70150391 -30.75 121.0625 C-32.17361663 121.36119395 -33.59676451 121.66212742 -35.01953125 121.96484375 C-35.80408691 122.1232373 -36.58864258 122.28163086 -37.39697266 122.44482422 C-42.44611001 123.52170833 -47.43588357 124.84845772 -52.4375 126.125 C-59.27221901 127.85119906 -66.11100677 129.50394149 -73 131 C-74 128 -74 128 -73.07885742 125.81787109 C-72.59263916 124.97820801 -72.1064209 124.13854492 -71.60546875 123.2734375 C-71.06696289 122.33250244 -70.52845703 121.39156738 -69.97363281 120.42211914 C-69.38420898 119.41656982 -68.79478516 118.41102051 -68.1875 117.375 C-67.59163086 116.34044678 -66.99576172 115.30589355 -66.38183594 114.23999023 C-64.59957554 111.15301404 -62.80293676 108.07493796 -61 105 C-60.51934082 104.17935059 -60.03868164 103.35870117 -59.54345703 102.51318359 C-57.87890064 99.6757457 -56.21076716 96.84050151 -54.53442383 94.01000977 C-51.75399045 89.3106299 -49.04382576 84.57609356 -46.375 79.8125 C-46.0025415 79.14774658 -45.63008301 78.48299316 -45.24633789 77.7980957 C-44.5135201 76.48934279 -43.78085118 75.1805065 -43.04833984 73.87158203 C-37.78125678 64.46835456 -32.33817034 55.18849022 -26.78076172 45.95507812 C-17.63640326 30.75926395 -8.60019125 15.51145606 0 0 Z " fill="#875BEC" transform="translate(202,101)"/>
<path d="M0 0 C1 3 1 3 0.30664062 4.71069336 C-0.07298828 5.33081299 -0.45261719 5.95093262 -0.84375 6.58984375 C-1.26221191 7.28553467 -1.68067383 7.98122559 -2.11181641 8.69799805 C-2.79896729 9.80655151 -2.79896729 9.80655151 -3.5 10.9375 C-4.43507298 12.48426792 -5.36996815 14.03114335 -6.3046875 15.578125 C-6.99836426 16.71411133 -6.99836426 16.71411133 -7.70605469 17.87304688 C-9.38009888 20.6247965 -11.00676264 23.4026264 -12.625 26.1875 C-13.17800781 27.13625 -13.73101562 28.085 -14.30078125 29.0625 C-16.15209616 32.26293406 -17.98323284 35.47441597 -19.8125 38.6875 C-22.70988477 43.7740355 -25.65167699 48.83249789 -28.625 53.875 C-32.67357557 60.74595689 -36.72101844 67.6175279 -40.75 74.5 C-41.33523437 75.49918457 -41.92046875 76.49836914 -42.5234375 77.52783203 C-45.69729928 82.97083249 -48.81834515 88.43913845 -51.8671875 93.953125 C-52.49657227 95.08943359 -53.12595703 96.22574219 -53.77441406 97.39648438 C-54.98322251 99.58701113 -56.18597371 101.78089444 -57.38183594 103.97851562 C-57.9287207 104.97044922 -58.47560547 105.96238281 -59.0390625 106.984375 C-59.51553223 107.85803711 -59.99200195 108.73169922 -60.48291016 109.63183594 C-62.07455328 112.11637702 -63.84392164 113.99647709 -66 116 C-68 115 -68 115 -69.1484375 111.80078125 C-77.59603352 82.1880054 -77.54336848 52.49969077 -77 22 C-68.06204239 17.27701099 -59.24619052 13.38653502 -49.5625 10.375 C-48.36544434 9.99601562 -47.16838867 9.61703125 -45.93505859 9.2265625 C-14.94411616 -0.35581229 -14.94411616 -0.35581229 0 0 Z " fill="#875BED" transform="translate(189,101)"/>
<path d="M0 0 C65.816 11.816 65.816 11.816 77 23 C77.13956289 25.64418741 77.21281475 28.26007063 77.23828125 30.90625 C77.25290405 32.13533585 77.25290405 32.13533585 77.26782227 33.38925171 C77.53034035 61.37269486 76.55587062 89.10511161 68 116 C65.30490732 115.65576922 64.26256111 115.33393092 62.55395508 113.16088867 C62.10947021 112.3588501 61.66498535 111.55681152 61.20703125 110.73046875 C60.69350098 109.82345215 60.1799707 108.91643555 59.65087891 107.98193359 C59.10608887 106.99789551 58.56129883 106.01385742 58 105 C56.81895011 102.95295729 55.63526753 100.90743169 54.44921875 98.86328125 C53.19479472 96.67998491 51.9409043 94.49638191 50.6875 92.3125 C46.28915908 84.66159316 41.86080036 77.03408352 37.28198242 69.48950195 C34.09445769 64.21275049 31.04678183 58.85895281 28 53.5 C24.57889698 47.48472098 21.13964054 41.48651683 17.5625 35.5625 C17.21896484 34.99297607 16.87542969 34.42345215 16.52148438 33.83666992 C15.78150801 32.61045684 15.0414314 31.38430424 14.30126953 30.15820312 C11.52266768 25.54979031 8.7565971 20.93410791 6 16.3125 C5.4232251 15.35480713 4.8464502 14.39711426 4.25219727 13.41040039 C3.71522217 12.50797607 3.17824707 11.60555176 2.625 10.67578125 C2.14289063 9.87052002 1.66078125 9.06525879 1.1640625 8.2355957 C0.0571742 6.10980373 -0.64700803 4.36599173 -1 2 C-0.67 1.34 -0.34 0.68 0 0 Z " fill="#743DDC" transform="translate(219,100)"/>
<path d="M0 0 C1.87963867 0.16040039 1.87963867 0.16040039 4 1 C5.5012207 2.90405273 5.5012207 2.90405273 6.92578125 5.43359375 C7.46759033 6.37984619 8.00939941 7.32609863 8.56762695 8.30102539 C9.14343506 9.33606201 9.71924316 10.37109863 10.3125 11.4375 C10.91989014 12.50411865 11.52728027 13.5707373 12.15307617 14.66967773 C13.44681366 16.94203061 14.73548216 19.21727562 16.01953125 21.49511719 C19.24141713 27.20855771 22.531858 32.88267555 25.8125 38.5625 C26.76068604 40.20931763 26.76068604 40.20931763 27.72802734 41.8894043 C31.08095091 47.70745366 34.46449557 53.50282997 37.9375 59.25 C39.29201739 61.49978888 40.64619071 63.74978495 42 66 C42.38333496 66.63421875 42.76666992 67.2684375 43.16162109 67.921875 C44.32672513 69.85847328 45.47736272 71.80301213 46.625 73.75 C47.29789062 74.87921875 47.97078125 76.0084375 48.6640625 77.171875 C50 80 50 80 49 83 C41.50143632 81.24083499 34.00332034 79.48003109 26.51171875 77.69140625 C25.59479248 77.47250732 24.67786621 77.2536084 23.7331543 77.02807617 C21.95452257 76.60307931 20.17603182 76.17749191 18.39770508 75.7512207 C17.5652124 75.55230225 16.73271973 75.35338379 15.875 75.1484375 C14.65876953 74.85018066 14.65876953 74.85018066 13.41796875 74.54589844 C11.80691154 74.18217429 10.18267406 73.87257797 8.55078125 73.61816406 C4.50074458 72.94706294 2.45762828 72.4151053 -0.6484375 69.59765625 C-4.03888514 64.81122739 -6.79715075 59.56701194 -9.625 54.4375 C-10.76254849 52.3942682 -11.90055359 50.35129055 -13.0390625 48.30859375 C-13.53615723 47.40939209 -14.03325195 46.51019043 -14.54541016 45.58374023 C-15.53454378 43.82677462 -16.58021904 42.10071974 -17.67333984 40.40649414 C-19.44740581 37.18842858 -19.21245301 34.61170124 -19 31 C-18.34 31 -17.68 31 -17 31 C-16.74734375 30.13761719 -16.4946875 29.27523437 -16.234375 28.38671875 C-14.93637345 24.8254297 -13.29317764 22.00001551 -11.25 18.8125 C-7.99004392 13.66402278 -4.98557551 8.43329224 -2.12890625 3.046875 C-1 1 -1 1 0 0 Z " fill="#743EDC" transform="translate(230,149)"/>
<path d="M0 0 C0 26.07 0 52.14 0 79 C-0.66 79 -1.32 79 -2 79 C-2.33 78.01 -2.66 77.02 -3 76 C-4.65204456 75.29788106 -6.31923769 74.63028587 -8 74 C-8.495 73.01 -8.495 73.01 -9 72 C-10.66586994 71.26701723 -12.33454161 70.53945518 -14.01953125 69.8515625 C-18.47312969 67.93660301 -22.25287363 66.12068955 -25 62 C-25.99 61.67 -26.98 61.34 -28 61 C-28.33 59.02 -28.66 57.04 -29 55 C-29.99 55 -30.98 55 -32 55 C-35.77777778 53.44444444 -35.77777778 53.44444444 -37 51 C-37.66 51 -38.32 51 -39 51 C-39.33 49.68 -39.66 48.36 -40 47 C-39.34 47 -38.68 47 -38 47 C-38.2475 46.195625 -38.495 45.39125 -38.75 44.5625 C-39.0959956 39.63206265 -37.23111857 36.30902727 -35 32 C-34.34 32 -33.68 32 -33 32 C-33 31.01 -33 30.02 -33 29 C-32.34 29 -31.68 29 -31 29 C-30.97421875 28.30132812 -30.9484375 27.60265625 -30.921875 26.8828125 C-30.86515625 25.97273438 -30.8084375 25.06265625 -30.75 24.125 C-30.68039063 22.76761719 -30.68039063 22.76761719 -30.609375 21.3828125 C-30.40828125 20.59648437 -30.2071875 19.81015625 -30 19 C-28.05859375 17.8984375 -28.05859375 17.8984375 -26 17 C-24.26931729 13.545183 -24.26931729 13.545183 -23 10 C-22.67 9.34 -22.34 8.68 -22 8 C-21.34 8 -20.68 8 -20 8 C-20 6.68 -20 5.36 -20 4 C-16.91190305 2.23537317 -15.76687864 2 -12 2 C-12 1.34 -12 0.68 -12 0 C-7.41466617 -0.80917656 -4.66958927 -0.93391785 0 0 Z " fill="#8C5EF6" transform="translate(204,229)"/>
<path d="M0 0 C1.79516602 0.18334961 1.79516602 0.18334961 4 1 C5.65991211 3.18969727 5.65991211 3.18969727 7.27734375 6.06640625 C7.87353516 7.10990234 8.46972656 8.15339844 9.08398438 9.22851562 C10.00147461 10.87883789 10.00147461 10.87883789 10.9375 12.5625 C12.15390122 14.71022857 13.37132952 16.85737579 14.58984375 19.00390625 C15.45391846 20.55295654 15.45391846 20.55295654 16.33544922 22.13330078 C18.13258273 25.22833476 20.10502544 28.14174621 22.25219727 31.00366211 C23.46582592 34.24357118 22.76655845 36.67399051 22 40 C20.42114258 43.2980957 20.42114258 43.2980957 18.39453125 46.67578125 C18.03284348 47.28584518 17.6711557 47.89590912 17.29850769 48.52445984 C16.14727927 50.46048674 14.9803244 52.38644862 13.8125 54.3125 C13.04776415 55.59246387 12.28408334 56.87305871 11.52148438 58.15429688 C9.69686503 61.21422027 7.85987607 64.26644379 6.01715088 67.31549072 C4.48896518 69.84632763 2.96923792 72.38222122 1.44921875 74.91796875 C0.6328125 76.27864583 -0.18359375 77.63932292 -1 79 C-2.60031344 75.79937313 -1.03173691 73.27728194 0 70 C0.66 70 1.32 70 2 70 C1.67 47.89 1.34 25.78 1 3 C-4.07677675 11.24211712 -4.07677675 11.24211712 -8 20 C-8.66 20 -9.32 20 -10 20 C-8.56347895 15.08558588 -6.45840385 10.99761642 -3.875 6.625 C-3.50246094 5.98433594 -3.12992188 5.34367187 -2.74609375 4.68359375 C-1.83565998 3.11951523 -0.91851809 1.55934466 0 0 Z " fill="#6E3CD1" transform="translate(202,101)"/>
<path d="M0 0 C-0.5110117 4.89841214 -1.93917104 7.96116659 -4.625 12.0625 C-8.27719641 17.72253507 -11.42486937 23.49451494 -14.45703125 29.515625 C-16 32 -16 32 -19 33 C-23.01807638 28.02763048 -26.84447681 22.93266092 -30.5 17.6875 C-31.1909375 16.70136719 -31.881875 15.71523437 -32.59375 14.69921875 C-34 12 -34 12 -33.91113281 9.94921875 C-33 8 -33 8 -30.76269531 6.91918945 C-29.79428711 6.65323975 -28.82587891 6.38729004 -27.828125 6.11328125 C-26.77109375 5.81486328 -25.7140625 5.51644531 -24.625 5.20898438 C-22.954375 4.76522461 -22.954375 4.76522461 -21.25 4.3125 C-20.15171875 4.00505859 -19.0534375 3.69761719 -17.921875 3.38085938 C-5.73006701 0 -5.73006701 0 0 0 Z " fill="#8B60EF" transform="translate(168,233)"/>
<path d="M0 0 C2.77946666 0.49459942 5.50094568 1.05591926 8.25 1.6875 C9.05816162 1.87030518 9.86632324 2.05311035 10.69897461 2.24145508 C29.61691968 6.61691968 29.61691968 6.61691968 32 9 C32.3713948 12.9254598 31.76397433 14.97014055 29.515625 18.171875 C28.99226563 18.91824219 28.46890625 19.66460937 27.9296875 20.43359375 C27.37539063 21.19800781 26.82109375 21.96242187 26.25 22.75 C25.71117187 23.52988281 25.17234375 24.30976563 24.6171875 25.11328125 C20.55009925 30.81712452 20.55009925 30.81712452 17.81152344 31.72753906 C16.91481934 31.86240723 16.91481934 31.86240723 16 32 C11.96658437 26.24500453 8.29032268 20.28030675 4.6875 14.25 C4.02065186 13.1508728 4.02065186 13.1508728 3.34033203 12.02954102 C-0.70358112 5.19793224 -0.70358112 5.19793224 -1 1 C-0.67 0.67 -0.34 0.34 0 0 Z " fill="#733ED7" transform="translate(241,233)"/>
<path d="M0 0 C1.12019531 0.22429687 2.24039063 0.44859375 3.39453125 0.6796875 C10.01079327 2.07032112 10.01079327 2.07032112 13 3 C13.495 3.99 13.495 3.99 14 5 C12.33710938 4.96519531 12.33710938 4.96519531 10.640625 4.9296875 C9.17709008 4.91092423 7.71354786 4.89272463 6.25 4.875 C5.52039063 4.85824219 4.79078125 4.84148437 4.0390625 4.82421875 C0.1955376 4.78927761 -2.74606772 4.82500316 -6 7 C-6 5.68 -6 4.36 -6 3 C-9.96 3 -13.92 3 -18 3 C-18 3.66 -18 4.32 -18 5 C-20.64 5.66 -23.28 6.32 -26 7 C-26 8.32 -26 9.64 -26 11 C-26.66 11 -27.32 11 -28 11 C-28.99 14.3 -29.98 17.6 -31 21 C-31.66 21 -32.32 21 -33 21 C-35.02350324 24.03525486 -35.32124018 25.19426202 -35.625 28.6875 C-35.69976562 29.49574219 -35.77453125 30.30398438 -35.8515625 31.13671875 C-35.90054688 31.75160156 -35.94953125 32.36648438 -36 33 C-36.99 32.67 -37.98 32.34 -39 32 C-39 32.99 -39 33.98 -39 35 C-39.66 35 -40.32 35 -41 35 C-42.905247 40.10334017 -44.42589023 44.46342706 -44 50 C-44.66 50 -45.32 50 -46 50 C-45.67 51.32 -45.34 52.64 -45 54 C-43.515 53.505 -43.515 53.505 -42 53 C-41.34 54.32 -40.68 55.64 -40 57 C-38.68 57 -37.36 57 -36 57 C-35.34 57.33 -34.68 57.66 -34 58 C-34 59.98 -34 61.96 -34 64 C-33.38125 64.103125 -32.7625 64.20625 -32.125 64.3125 C-30 65 -30 65 -28 68 C-26.25706913 69.11307757 -26.25706913 69.11307757 -24.25 70 C-23.54359375 70.33515625 -22.8371875 70.6703125 -22.109375 71.015625 C-21.41328125 71.34046875 -20.7171875 71.6653125 -20 72 C-18 73 -16 74 -14 75 C-14 75.66 -14 76.32 -14 77 C-11.03 77.99 -11.03 77.99 -8 79 C-8 79.99 -8 80.98 -8 82 C-12.83411608 80.59128519 -16.97334907 78.48181489 -21.25 75.875 C-22.24060425 75.27341064 -22.24060425 75.27341064 -23.2512207 74.65966797 C-28.87448723 71.18411496 -34.01734175 67.3500637 -39 63 C-39.77682129 62.33750244 -39.77682129 62.33750244 -40.56933594 61.66162109 C-42.24695637 60.2263889 -43.90675555 58.77288867 -45.5625 57.3125 C-46.08803467 56.86084473 -46.61356934 56.40918945 -47.1550293 55.94384766 C-50.32242286 53.08443157 -51.64542153 51.24898566 -52 47 C-51.18652344 44.80615234 -51.18652344 44.80615234 -49.859375 42.5859375 C-49.37082031 41.75118896 -48.88226563 40.91644043 -48.37890625 40.05639648 C-47.84136719 39.17153564 -47.30382812 38.2866748 -46.75 37.375 C-45.6405027 35.49877023 -44.53113056 33.62246645 -43.421875 31.74609375 C-42.56819336 30.31885986 -42.56819336 30.31885986 -41.69726562 28.86279297 C-40.06191942 26.10444004 -38.46845286 23.3267368 -36.890625 20.53515625 C-36.40368164 19.67680176 -35.91673828 18.81844727 -35.41503906 17.93408203 C-34.49189929 16.30536786 -33.57182947 14.6749087 -32.65527344 13.04248047 C-27.40045812 3.87360935 -27.40045812 3.87360935 -21.42578125 1.69921875 C-20.05974113 1.34205912 -18.68817673 1.0055285 -17.3125 0.6875 C-16.59280029 0.51726318 -15.87310059 0.34702637 -15.1315918 0.17163086 C-9.76532095 -1.01017233 -5.37537136 -1.29592994 0 0 Z " fill="#8661E0" transform="translate(210,226)"/>
<path d="M0 0 C6.81760091 1.32756529 12.9594815 3.36112801 19.375 6 C20.26316406 6.35578125 21.15132813 6.7115625 22.06640625 7.078125 C25.63697274 8.52579795 28.78094895 9.85396596 32 12 C32.31973261 14.74351828 32.44327495 17.25607389 32.43359375 20.00390625 C32.44046707 20.82201782 32.44734039 21.64012939 32.454422 22.48303223 C32.46826816 25.17656281 32.45540467 27.86900318 32.4375 30.5625 C32.43512329 31.480383 32.43274658 32.39826599 32.43029785 33.34396362 C32.37905716 46.00110399 31.80599882 58.49902148 30.25 71.0625 C30.09329834 72.34133057 29.93659668 73.62016113 29.77514648 74.93774414 C28.51435764 84.1486917 26.3989549 93.03335414 24 102 C23.67 102 23.34 102 23 102 C23.2165625 100.29263672 23.2165625 100.29263672 23.4375 98.55078125 C26.0690073 79.64166523 26.0690073 79.64166523 27 60.625 C27 57 27 57 27.49169922 54.78955078 C28.16322979 51.10419614 28.14285492 47.47412087 28.1328125 43.7421875 C28.13376923 42.95731964 28.13472595 42.17245178 28.13571167 41.36380005 C28.13638987 39.71144531 28.13456078 38.05908785 28.13037109 36.40673828 C28.12500332 33.87656703 28.13033564 31.34657212 28.13671875 28.81640625 C28.13605819 27.20833294 28.13477747 25.60025974 28.1328125 23.9921875 C28.13483673 23.23590057 28.13686096 22.47961365 28.13894653 21.70040894 C28.12477101 18.53274609 28.00924001 16.02772003 27 13 C22.22201186 9.77162963 17.20470339 9.29309891 11.609375 8.625 C9 8 9 8 7 5 C5.989375 4.67 4.97875 4.34 3.9375 4 C2.968125 3.67 1.99875 3.34 1 3 C0.67 2.01 0.34 1.02 0 0 Z " fill="#4C2D8D" transform="translate(264,111)"/>
<path d="M0 0 C-0.5110117 4.89841214 -1.93917104 7.96116659 -4.625 12.0625 C-8.27719641 17.72253507 -11.42486937 23.49451494 -14.45703125 29.515625 C-16 32 -16 32 -19 33 C-20.65 31.02 -22.3 29.04 -24 27 C-23.67 26.34 -23.34 25.68 -23 25 C-21.35 25.99 -19.7 26.98 -18 28 C-17.87625 27.360625 -17.7525 26.72125 -17.625 26.0625 C-17.315625 25.0415625 -17.315625 25.0415625 -17 24 C-16.34 23.67 -15.68 23.34 -15 23 C-13.66563896 19.81235973 -13 17.34271863 -13 13.875 C-13 11 -13 11 -11 7 C-19.415 7.495 -19.415 7.495 -28 8 C-28 8.66 -28 9.32 -28 10 C-29.32 10.33 -30.64 10.66 -32 11 C-31.67 12.32 -31.34 13.64 -31 15 C-32.5625 13.75 -32.5625 13.75 -34 12 C-33.91308594 10.00854492 -33.91308594 10.00854492 -33 8 C-30.76269531 6.91918945 -30.76269531 6.91918945 -27.828125 6.11328125 C-26.77109375 5.81486328 -25.7140625 5.51644531 -24.625 5.20898438 C-22.954375 4.76522461 -22.954375 4.76522461 -21.25 4.3125 C-20.15171875 4.00505859 -19.0534375 3.69761719 -17.921875 3.38085938 C-5.73006701 0 -5.73006701 0 0 0 Z " fill="#8465D1" transform="translate(168,233)"/>
<path d="M0 0 C3.30627345 2.83394867 5.32540387 5.36884642 7.1875 9.3125 C9.45117775 14.10490639 12.10943683 18.52815122 14.9375 23 C15.37126953 23.69125977 15.80503906 24.38251953 16.25195312 25.09472656 C18.13762333 28.09103661 20.04281745 31.06381128 22.015625 34.00390625 C24.4610103 37.74625993 25.91787794 40.19246642 26.375 44.6875 C24.35642054 49.55044142 21.09449563 51.82643462 17 55 C16.20335937 55.68964844 15.40671875 56.37929688 14.5859375 57.08984375 C9.18643982 61.73080173 3.5836223 65.71359841 -2.4375 69.5 C-3.12392578 69.93352783 -3.81035156 70.36705566 -4.51757812 70.8137207 C-7.6898626 72.76586566 -10.32411275 74.22199179 -14 75 C-14.33 74.01 -14.66 73.02 -15 72 C-13.35 72 -11.7 72 -10 72 C-10 71.01 -10 70.02 -10 69 C-7.09399739 67.74335022 -5.20395416 67 -2 67 C-2 66.34 -2 65.68 -2 65 C-0.68 65 0.64 65 2 65 C2.04125 64.38125 2.0825 63.7625 2.125 63.125 C2.41375 62.42375 2.7025 61.7225 3 61 C4.98723268 60.29618843 6.98777953 59.6288189 9 59 C9.33 58.01 9.66 57.02 10 56 C10.66 56 11.32 56 12 56 C12 55.01 12 54.02 12 53 C14.475 52.505 14.475 52.505 17 52 C17 50.68 17 49.36 17 48 C17.99 48 18.98 48 20 48 C20.33 47.01 20.66 46.02 21 45 C21.66 45 22.32 45 23 45 C22.71125 44.39671875 22.4225 43.7934375 22.125 43.171875 C21.75375 42.37265625 21.3825 41.5734375 21 40.75 C20.62875 39.96109375 20.2575 39.1721875 19.875 38.359375 C19 36 19 36 19 32 C18.01 32 17.02 32 16 32 C16 30.35 16 28.7 16 27 C14.824375 26.690625 14.824375 26.690625 13.625 26.375 C11 25 11 25 9.9375 22.25 C9.628125 21.1775 9.31875 20.105 9 19 C7.67594012 16.99384866 6.34331654 14.99330842 5 13 C4.64141484 11.67323492 4.2981424 10.34164079 4 9 C3.34 8.67 2.68 8.34 2 8 C2 6.68 2 5.36 2 4 C1.34 4 0.68 4 0 4 C0 2.68 0 1.36 0 0 Z " fill="#482D83" transform="translate(224,231)"/>
<path d="M0 0 C7.71135772 1.36864965 15.39277226 2.85252108 23.0625 4.4375 C24.5794043 4.74397461 24.5794043 4.74397461 26.12695312 5.05664062 C32.53512583 6.38118888 38.76792283 8.00411726 45 10 C41.86930536 11.00797382 39.97266952 10.96229662 36.83203125 10.0390625 C36.02862305 9.81500732 35.22521484 9.59095215 34.39746094 9.36010742 C33.54442383 9.11752197 32.69138672 8.87493652 31.8125 8.625 C22.49341353 6.11042094 13.62668041 5.13716773 4 5 C5.81656531 10.65153653 7.98902153 14.67539566 11.79296875 19.23828125 C13 21 13 21 13 24 C13.66 24 14.32 24 15 24 C16.5 26.5 16.5 26.5 18 29 C18.66 29 19.32 29 20 29 C20.65134925 30.56020867 21.29582964 32.12328579 21.9375 33.6875 C22.29714844 34.55761719 22.65679687 35.42773438 23.02734375 36.32421875 C23.96472434 38.90295653 24.63416357 41.2816964 25 44 C24.67 44.66 24.34 45.32 24 46 C17.95508652 36.52870699 12.12811141 26.93851077 6.4375 17.25 C5.81794434 16.20263672 5.19838867 15.15527344 4.56005859 14.07617188 C3.9820752 13.08681641 3.4040918 12.09746094 2.80859375 11.078125 C2.03213501 9.75409668 2.03213501 9.75409668 1.23999023 8.40332031 C0.10867214 6.21062583 -0.6471259 4.43492998 -1 2 C-0.67 1.34 -0.34 0.68 0 0 Z " fill="#351D64" transform="translate(219,100)"/>
<path d="M0 0 C1.12019531 0.22429687 2.24039063 0.44859375 3.39453125 0.6796875 C10.01079327 2.07032112 10.01079327 2.07032112 13 3 C13.495 3.99 13.495 3.99 14 5 C12.33710938 4.96519531 12.33710938 4.96519531 10.640625 4.9296875 C9.17709008 4.91092423 7.71354786 4.89272463 6.25 4.875 C5.52039063 4.85824219 4.79078125 4.84148437 4.0390625 4.82421875 C0.1955376 4.78927761 -2.74606772 4.82500316 -6 7 C-6 5.68 -6 4.36 -6 3 C-9.96 3 -13.92 3 -18 3 C-18 3.66 -18 4.32 -18 5 C-20.64 5.66 -23.28 6.32 -26 7 C-26 8.32 -26 9.64 -26 11 C-26.66 11 -27.32 11 -28 11 C-28.99 14.3 -29.98 17.6 -31 21 C-31.66 21 -32.32 21 -33 21 C-35.10232344 23.8684413 -35.10232344 23.8684413 -36 27 C-36.66 27 -37.32 27 -38 27 C-39.62514468 28.45833358 -39.62514468 28.45833358 -41 30 C-39.47656948 24.60808299 -36.96871859 20.15045746 -34.125 15.375 C-33.47337891 14.24964844 -33.47337891 14.24964844 -32.80859375 13.1015625 C-29.19577439 6.98255313 -26.64242531 3.06314258 -19.41723633 1.17407227 C-18.72267334 1.01350342 -18.02811035 0.85293457 -17.3125 0.6875 C-16.23295044 0.43214478 -16.23295044 0.43214478 -15.1315918 0.17163086 C-9.76532095 -1.01017233 -5.37537136 -1.29592994 0 0 Z " fill="#6147A2" transform="translate(210,226)"/>
<path d="M0 0 C0.33 0.66 0.66 1.32 1 2 C-0.81077197 5.37204299 -2.7447023 8.62587654 -4.75195312 11.8828125 C-7.25005036 16.10251835 -8.58125369 18.93592676 -8 24 C-2.88447039 24.09795695 2.20839045 24.07126764 7.3125 23.6875 C8.09238281 23.62949219 8.87226563 23.57148438 9.67578125 23.51171875 C12.12289851 23.11735934 12.12289851 23.11735934 14.3359375 21.46875 C17.82264747 19.54645828 20.36040125 19.70169349 24.3125 19.8125 C26.19388672 19.85310547 26.19388672 19.85310547 28.11328125 19.89453125 C29.06589844 19.92933594 30.01851562 19.96414062 31 20 C27.58346353 21.93421574 24.21749822 22.76200195 20.3984375 23.62109375 C19.76193268 23.76652115 19.12542786 23.91194855 18.46963501 24.06178284 C16.43915892 24.52522364 14.40725842 24.98194385 12.375 25.4375 C0.58790618 28.06294815 0.58790618 28.06294815 -10.96240234 31.56665039 C-13.30612989 32.0651067 -14.74804133 31.74885403 -17 31 C-15.71399792 27.64251793 -14.2696014 24.49799829 -12.5390625 21.34765625 C-12.06726563 20.48849609 -11.59546875 19.62933594 -11.109375 18.74414062 C-10.37460938 17.41672852 -10.37460938 17.41672852 -9.625 16.0625 C-8.90183594 14.74088867 -8.90183594 14.74088867 -8.1640625 13.39257812 C-5.6228061 8.7830981 -3.00496664 4.32230983 0 0 Z " fill="#8864DA" transform="translate(145,200)"/>
<path d="M0 0 C0.99 0.33 1.98 0.66 3 1 C2.34 1 1.68 1 1 1 C0.731875 1.721875 0.46375 2.44375 0.1875 3.1875 C-1 6 -1 6 -2.5 8.375 C-4.28658804 11.50152907 -5.08508512 14.52332345 -6 18 C-7.53069807 23.57611438 -7.53069807 23.57611438 -9.9375 25.75 C-13.09593898 29.1955698 -14.21676378 33.43234204 -15 38 C-14.64666738 40.23367147 -14.64666738 40.23367147 -14 42 C-13.34 42 -12.68 42 -12 42 C-11.30329584 43.78810766 -10.61788811 45.58062052 -9.9375 47.375 C-9.55464844 48.37273437 -9.17179688 49.37046875 -8.77734375 50.3984375 C-8 53 -8 53 -9 55 C-10.69230432 52.32786948 -12.34880629 49.63519351 -14 46.9375 C-14.71542969 45.80924805 -14.71542969 45.80924805 -15.4453125 44.65820312 C-18.38263654 39.81161846 -19.60290161 36.67481145 -19 31 C-18.34 31 -17.68 31 -17 31 C-16.74734375 30.13761719 -16.4946875 29.27523437 -16.234375 28.38671875 C-14.93637345 24.8254297 -13.29317764 22.00001551 -11.25 18.8125 C-7.99004392 13.66402278 -4.98557551 8.43329224 -2.12890625 3.046875 C-1 1 -1 1 0 0 Z " fill="#6A44B9" transform="translate(230,149)"/>
<path d="M0 0 C2.77946666 0.49459942 5.50094568 1.05591926 8.25 1.6875 C9.05816162 1.87030518 9.86632324 2.05311035 10.69897461 2.24145508 C29.61691968 6.61691968 29.61691968 6.61691968 32 9 C32.48697281 11.7595126 32.31754476 13.46372686 30.8828125 15.88671875 C29.63099633 17.63006726 28.34764828 19.32987873 27 21 C25.65117186 18.30234372 26.19661735 16.84835666 27 14 C27.66 13.67 28.32 13.34 29 13 C29.33 12.01 29.66 11.02 30 10 C29.34 10 28.68 10 28 10 C28 9.34 28 8.68 28 8 C26.74896484 8.01740234 26.74896484 8.01740234 25.47265625 8.03515625 C18.88254338 8.08799793 12.53093626 7.88555068 6 7 C6 8.65 6 10.3 6 12 C6.66 12.33 7.32 12.66 8 13 C8.625 16.0625 8.625 16.0625 9 19 C6.42254034 16.6386148 4.68105675 14.11089282 2.875 11.125 C2.35679687 10.28195313 1.83859375 9.43890625 1.3046875 8.5703125 C-0.00577236 5.9886281 -0.67009333 3.86918832 -1 1 C-0.67 0.67 -0.34 0.34 0 0 Z " fill="#7045C5" transform="translate(241,233)"/>
<path d="M0 0 C2.54389796 2.3159602 4.13027818 4.71896928 5.8125 7.7109375 C6.58980469 9.08378906 6.58980469 9.08378906 7.3828125 10.484375 C7.91648437 11.43828125 8.45015625 12.3921875 9 13.375 C10.06209628 15.25804027 11.12458396 17.14085984 12.1875 19.0234375 C12.65542969 19.85794434 13.12335938 20.69245117 13.60546875 21.55224609 C14.58905634 23.27869029 15.64080777 24.96715173 16.73828125 26.62353516 C17.15464844 27.40776855 17.57101562 28.19200195 18 29 C17.505 30.485 17.505 30.485 17 32 C4.32690123 29.02688771 -8.33811725 26.02050509 -21 23 C-21 22.67 -21 22.34 -21 22 C-13.25 21.875 -13.25 21.875 -11 23 C-9.46331135 23.22467831 -7.92031946 23.40796805 -6.375 23.5625 C-5.55773437 23.64628906 -4.74046875 23.73007813 -3.8984375 23.81640625 C-2.95871094 23.90728516 -2.95871094 23.90728516 -2 24 C-2 24.66 -2 25.32 -2 26 C2.29 26.33 6.58 26.66 11 27 C9.37086939 20.89076022 8.14047687 16.83055635 4 12 C3.25 9.1875 3.25 9.1875 3 7 C2.34 7 1.68 7 1 7 C0.67 4.69 0.34 2.38 0 0 Z " fill="#4A2E89" transform="translate(262,200)"/>
<path d="M0 0 C2.51132047 2.29119921 4.08525036 4.64556317 5.7421875 7.60546875 C6.25136719 8.50716797 6.76054687 9.40886719 7.28515625 10.33789062 C8.07212891 11.74844727 8.07212891 11.74844727 8.875 13.1875 C9.91246638 15.03605295 10.9515086 16.88372244 11.9921875 18.73046875 C12.49202148 19.62685059 12.99185547 20.52323242 13.50683594 21.44677734 C14.88467478 23.80280066 16.3845817 26.00180902 17.9453125 28.23828125 C19.75830694 31.12528978 19.99952893 31.97311934 20.0625 35.56640625 C18.87353702 39.40867998 17.19115668 42.60096597 15 45.9375 C14.63132813 46.52595703 14.26265625 47.11441406 13.8828125 47.72070312 C12.95932288 49.17166036 11.98417046 50.58949708 11 52 C10.67 52 10.34 52 10 52 C10.45602999 47.25728811 11.12308453 44.71601582 14 41 C15.42576439 35.89101094 14.74565338 31.16221568 14 26 C13.34 26 12.68 26 12 26 C11.74605469 25.46890625 11.49210938 24.9378125 11.23046875 24.390625 C9.06661009 19.92401394 9.06661009 19.92401394 6.3125 15.8125 C5 14 5 14 4.5625 11.375 C4.24928429 8.82191056 4.24928429 8.82191056 1.9375 7.6875 C1.298125 7.460625 0.65875 7.23375 0 7 C0 4.69 0 2.38 0 0 Z " fill="#53338F" transform="translate(205,102)"/>
<path d="M0 0 C14.42863074 -1.05862236 27.17042062 2.06016781 41 6 C41 6.33 41 6.66 41 7 C38.70890403 7.08075665 36.41700733 7.13907731 34.125 7.1875 C32.21074219 7.23970703 32.21074219 7.23970703 30.2578125 7.29296875 C28.64519531 7.14794922 28.64519531 7.14794922 27 7 C26.34 6.01 25.68 5.02 25 4 C22.22737745 3.61605333 19.65676472 3.39657752 16.875 3.3125 C16.12089844 3.27833984 15.36679688 3.24417969 14.58984375 3.20898438 C12.72708799 3.12645722 10.86356674 3.06155289 9 3 C8.34 6.3 7.68 9.6 7 13 C6.67 12.34 6.34 11.68 6 11 C5.01 10.67 4.02 10.34 3 10 C0.70366176 6.55549263 0.45983515 4.06187717 0 0 Z " fill="#7142CC" transform="translate(223,105)"/>
<path d="M0 0 C0.99 0 1.98 0 3 0 C3.58618778 7.61282831 2.05453295 12.00295438 -1.8125 18.5 C-2.49022461 19.71429688 -2.49022461 19.71429688 -3.18164062 20.953125 C-6.57519025 26.85839675 -6.57519025 26.85839675 -10 28 C-11.65 26.02 -13.3 24.04 -15 22 C-14.67 21.34 -14.34 20.68 -14 20 C-12.35 20.99 -10.7 21.98 -9 23 C-8.87625 22.360625 -8.7525 21.72125 -8.625 21.0625 C-8.41875 20.381875 -8.2125 19.70125 -8 19 C-7.34 18.67 -6.68 18.34 -6 18 C-4.66563896 14.81235973 -4 12.34271863 -4 8.875 C-4 4.77056794 -2.85733248 2.85733248 0 0 Z " fill="#7351C0" transform="translate(159,238)"/>
<path d="M0 0 C2.2639021 2.10665831 3.82338248 4.16613657 5.34765625 6.8515625 C5.78368164 7.61283447 6.21970703 8.37410645 6.66894531 9.15844727 C7.12881836 9.97240967 7.58869141 10.78637207 8.0625 11.625 C9.03689345 13.33512968 10.01217434 15.04475399 10.98828125 16.75390625 C11.48408691 17.62289551 11.97989258 18.49188477 12.49072266 19.38720703 C13.95991149 21.93060057 15.46176191 24.45075805 16.98046875 26.96484375 C17.44638428 27.73940918 17.9122998 28.51397461 18.39233398 29.31201172 C19.28552222 30.79257442 20.18462532 32.26958764 21.09008789 33.74267578 C22.12063878 35.46019111 23.0694112 37.2263319 24 39 C23.67 39.66 23.34 40.32 23 41 C22.34 40.67 21.68 40.34 21 40 C21 39.01 21 38.02 21 37 C19.68 37 18.36 37 17 37 C16.71125 36.0925 16.4225 35.185 16.125 34.25 C14.65513763 29.2397949 14.65513763 29.2397949 11 26 C11 24.35 11 22.7 11 21 C10.01 20.67 9.02 20.34 8 20 C8 19.34 8 18.68 8 18 C7.34 18 6.68 18 6 18 C5.79503906 17.43410156 5.59007812 16.86820313 5.37890625 16.28515625 C5.10949219 15.55167969 4.84007812 14.81820312 4.5625 14.0625 C4.16224609 12.96615234 4.16224609 12.96615234 3.75390625 11.84765625 C3.14613052 10.01694322 3.14613052 10.01694322 2 9 C1.95936168 7.33382885 1.957279 5.66611905 2 4 C1.34 4 0.68 4 0 4 C0 2.68 0 1.36 0 0 Z " fill="#4F3091" transform="translate(238,159)"/>
<path d="M0 0 C1.32 0.33 2.64 0.66 4 1 C4 3 4 3 2.63671875 4.41015625 C0.43027593 6.28054766 -1.78049842 8.14510554 -4 10 C-4.79792969 10.69609375 -5.59585938 11.3921875 -6.41796875 12.109375 C-11.82950233 16.72678035 -17.42067942 20.71630356 -23.4375 24.5 C-24.12392578 24.93352783 -24.81035156 25.36705566 -25.51757812 25.8137207 C-28.6898626 27.76586566 -31.32411275 29.22199179 -35 30 C-35.33 29.01 -35.66 28.02 -36 27 C-34.35 27 -32.7 27 -31 27 C-31 26.01 -31 25.02 -31 24 C-28.09399739 22.74335022 -26.20395416 22 -23 22 C-23 21.34 -23 20.68 -23 20 C-21.68 20 -20.36 20 -19 20 C-18.95875 19.38125 -18.9175 18.7625 -18.875 18.125 C-18.58625 17.42375 -18.2975 16.7225 -18 16 C-16.01276732 15.29618843 -14.01222047 14.6288189 -12 14 C-11.67 13.01 -11.34 12.02 -11 11 C-10.34 11 -9.68 11 -9 11 C-9 10.01 -9 9.02 -9 8 C-7.35 7.67 -5.7 7.34 -4 7 C-4 5.68 -4 4.36 -4 3 C-3.01 3 -2.02 3 -1 3 C-0.67 2.01 -0.34 1.02 0 0 Z " fill="#502F8F" transform="translate(245,276)"/>
<path d="M0 0 C0.99 0.33 1.98 0.66 3 1 C3 1.99 3 2.98 3 4 C3.99 4.33 4.98 4.66 6 5 C9.38177635 10.04257755 11.14277086 16.03266837 12.8125 21.8125 C13.204375 22.534375 13.59625 23.25625 14 24 C15.65 24.33 17.3 24.66 19 25 C19.66 28.3 20.32 31.6 21 35 C21.66 35 22.32 35 23 35 C23.19335938 35.56589844 23.38671875 36.13179687 23.5859375 36.71484375 C23.97652344 37.81505859 23.97652344 37.81505859 24.375 38.9375 C24.75785156 40.03384766 24.75785156 40.03384766 25.1484375 41.15234375 C25.85271413 43.18682116 25.85271413 43.18682116 28 44 C28 44.99 28 45.98 28 47 C28.66 47.33 29.32 47.66 30 48 C29.34 48.66 28.68 49.32 28 50 C20.3783337 37.43497975 12.82154896 24.84124839 5.5625 12.0625 C5.00151611 11.08079834 4.44053223 10.09909668 3.86254883 9.08764648 C3.35232178 8.18344971 2.84209473 7.27925293 2.31640625 6.34765625 C1.64266968 5.15668335 1.64266968 5.15668335 0.95532227 3.94165039 C0 2 0 2 0 0 Z " fill="#472B7F" transform="translate(244,146)"/>
<path d="M0 0 C-3.00617269 3.00617269 -5.82381598 2.59585316 -10 3 C-10.33 3.99 -10.66 4.98 -11 6 C-11.99 6 -12.98 6 -14 6 C-14 6.66 -14 7.32 -14 8 C-17.09437815 10.86516496 -18.59496219 11.11899244 -23 12 C-23.33 24.21 -23.66 36.42 -24 49 C-24.33 49 -24.66 49 -25 49 C-25.0494731 43.66147206 -25.08575425 38.32307786 -25.10986328 32.984375 C-25.11991491 31.16859614 -25.13355828 29.35283344 -25.15087891 27.53710938 C-25.17516406 24.92574065 -25.18649148 22.31458613 -25.1953125 19.703125 C-25.20563507 18.89256653 -25.21595764 18.08200806 -25.22659302 17.24688721 C-25.22806017 9.86084523 -25.22806017 9.86084523 -23 7 C-21.26000977 5.91918945 -21.26000977 5.91918945 -19.19140625 5.11328125 C-18.44439453 4.81486328 -17.69738281 4.51644531 -16.92773438 4.20898438 C-16.14720703 3.91314453 -15.36667969 3.61730469 -14.5625 3.3125 C-13.39750977 2.85133789 -13.39750977 2.85133789 -12.20898438 2.38085938 C-3.33569683 -1.11189894 -3.33569683 -1.11189894 0 0 Z " fill="#6851A4" transform="translate(138,114)"/>
<path d="M0 0 C0.66 0.33 1.32 0.66 2 1 C0.57713608 4.84103166 -1.21539121 8.23466908 -3.3125 11.75 C-5.89596708 16.11831053 -8.41781591 20.50856994 -10.8671875 24.953125 C-12.54633894 27.98717795 -14.27266839 30.9931635 -16 34 C-18 30.25 -18 30.25 -18 28 C-17.34 28 -16.68 28 -16 28 C-15.7525 27.21625 -15.505 26.4325 -15.25 25.625 C-13.84610901 22.67682892 -12.99324263 22.0975223 -10 21 C-10.309375 20.01 -10.61875 19.02 -10.9375 18 C-11.37842728 15.18264644 -11.17493522 14.25700938 -9.54296875 11.859375 C-8.28339072 10.4740957 -6.99062378 9.11815117 -5.6640625 7.796875 C-3.77096346 6.0005346 -3.77096346 6.0005346 -3 3 C-2.01 3 -1.02 3 0 3 C0 2.01 0 1.02 0 0 Z " fill="#7D59CA" transform="translate(185,106)"/>
<path d="M0 0 C0.33 0.66 0.66 1.32 1 2 C-0.62510485 5.70497752 -2.65121159 9.19593853 -4.63134766 12.72216797 C-5.61627506 14.48438943 -6.57612021 16.25874311 -7.53515625 18.03515625 C-8.46521484 19.70384766 -8.46521484 19.70384766 -9.4140625 21.40625 C-9.9807666 22.43041016 -10.5474707 23.45457031 -11.13134766 24.50976562 C-13 27 -13 27 -18 29 C-19.32 23.72 -20.64 18.44 -22 13 C-21.34 13 -20.68 13 -20 13 C-19.67 15.64 -19.34 18.28 -19 21 C-18.01 21.33 -17.02 21.66 -16 22 C-15.38125 21.34 -14.7625 20.68 -14.125 20 C-12 18 -12 18 -10 18 C-10 16.02 -10 14.04 -10 12 C-8.68 12 -7.36 12 -6 12 C-5.87625 11.030625 -5.7525 10.06125 -5.625 9.0625 C-5.315625 7.5465625 -5.315625 7.5465625 -5 6 C-4.34 5.67 -3.68 5.34 -3 5 C-2.835 4.34 -2.67 3.68 -2.5 3 C-2.335 2.34 -2.17 1.68 -2 1 C-1.34 0.67 -0.68 0.34 0 0 Z " fill="#8565D2" transform="translate(140,186)"/>
<path d="M0 0 C0.7425 0.639375 1.485 1.27875 2.25 1.9375 C4.81530059 3.86147544 6.03325711 4.28388965 9 5 C9.99 6.485 9.99 6.485 11 8 C12.74293087 9.11307757 12.74293087 9.11307757 14.75 10 C15.45640625 10.33515625 16.1628125 10.6703125 16.890625 11.015625 C17.58671875 11.34046875 18.2828125 11.6653125 19 12 C21 13 23 14 25 15 C25 15.66 25 16.32 25 17 C26.98 17.66 28.96 18.32 31 19 C31 19.99 31 20.98 31 22 C26.16580264 20.59126151 22.02687992 18.48157673 17.75 15.875 C17.09829834 15.47974121 16.44659668 15.08448242 15.77514648 14.67724609 C10.23949268 11.25862703 4.52836718 7.70950187 0 3 C0 2.01 0 1.02 0 0 Z " fill="#574097" transform="translate(171,286)"/>
<path d="M0 0 C0.33 0 0.66 0 1 0 C1.01981934 1.02134033 1.03963867 2.04268066 1.06005859 3.0949707 C1.46546462 27.77098883 1.46546462 27.77098883 3.58984375 52.33984375 C4.13914659 57.24171766 4.19918438 62.07571947 4 67 C3.67 67 3.34 67 3 67 C-1.17339054 44.84128357 -0.29083136 22.44472341 0 0 Z " fill="#8667D3" transform="translate(114,128)"/>
<path d="M0 0 C0.33 0.66 0.66 1.32 1 2 C0.3190918 3.64819336 0.3190918 3.64819336 -0.80078125 5.58984375 C-1.20103516 6.29173828 -1.60128906 6.99363281 -2.01367188 7.71679688 C-2.44228516 8.44962891 -2.87089844 9.18246094 -3.3125 9.9375 C-3.93801758 11.03094727 -3.93801758 11.03094727 -4.57617188 12.14648438 C-6.30972585 15.16292359 -8.0689795 18.10346924 -10 21 C-10.16713569 23.62531524 -10.16713569 23.62531524 -10 26 C-10.66 26 -11.32 26 -12 26 C-12 26.66 -12 27.32 -12 28 C-8.04 27.67 -4.08 27.34 0 27 C-2.76280538 28.84187025 -4.80707826 29.72248277 -7.9375 30.6875 C-8.79214844 30.95949219 -9.64679688 31.23148438 -10.52734375 31.51171875 C-13.10510574 32.02075548 -14.54449337 31.84888744 -17 31 C-15.71399792 27.64251793 -14.2696014 24.49799829 -12.5390625 21.34765625 C-12.06726563 20.48849609 -11.59546875 19.62933594 -11.109375 18.74414062 C-10.37460938 17.41672852 -10.37460938 17.41672852 -9.625 16.0625 C-8.90183594 14.74088867 -8.90183594 14.74088867 -8.1640625 13.39257812 C-5.6228061 8.7830981 -3.00496664 4.32230983 0 0 Z " fill="#31215D" transform="translate(145,200)"/>
<path d="M0 0 C0.495 1.485 0.495 1.485 1 3 C0.01 3.99 -0.98 4.98 -2 6 C-1.67 4.68 -1.34 3.36 -1 2 C-12.90240086 3.24215087 -24.36831723 5.76942525 -35.99145508 8.57275391 C-38 9 -38 9 -40 9 C-40 9.66 -40 10.32 -40 11 C-44.12168689 12.62950412 -46.70700357 13.26264601 -51 12 C-47.08123427 9.38748951 -43.12919327 8.40193899 -38.625 7.125 C-37.24042603 6.73127197 -37.24042603 6.73127197 -35.82788086 6.32958984 C-29.12361981 4.47532835 -22.39345954 2.93393364 -15.5625 1.625 C-14.69383301 1.45758301 -13.82516602 1.29016602 -12.93017578 1.11767578 C-8.56131007 0.32138851 -4.46207066 -0.18864039 0 0 Z " fill="#190840" transform="translate(189,101)"/>
<path d="M0 0 C1.32 0 2.64 0 4 0 C2.42301845 5.9925299 -0.77240738 10.7902858 -4 16 C-5.60407048 18.71914027 -7.2043233 21.44044657 -8.80078125 24.1640625 C-9.19652344 24.76992187 -9.59226563 25.37578125 -10 26 C-10.33 26 -10.66 26 -11 26 C-11 23.03 -11 20.06 -11 17 C-10.236875 16.855625 -9.47375 16.71125 -8.6875 16.5625 C-5.0266455 14.43409622 -4.8063091 12.27560189 -3.69140625 8.33203125 C-2.81010742 5.35951487 -1.46654631 2.72358601 0 0 Z " fill="#6447A1" transform="translate(155,155)"/>
<path d="M0 0 C29.15078236 6.15078236 29.15078236 6.15078236 32 9 C32.48697281 11.7595126 32.31754476 13.46372686 30.8828125 15.88671875 C29.63099633 17.63006726 28.34764828 19.32987873 27 21 C25.65117186 18.30234372 26.19661735 16.84835666 27 14 C27.66 13.67 28.32 13.34 29 13 C29.33 12.01 29.66 11.02 30 10 C29.34 10 28.68 10 28 10 C28 9.34 28 8.68 28 8 C25.36 8 22.72 8 20 8 C20 7.34 20 6.68 20 6 C19.31035156 5.97421875 18.62070312 5.9484375 17.91015625 5.921875 C11.16219932 5.51459091 5.96924004 4.16885582 0 1 C0 0.67 0 0.34 0 0 Z " fill="#301757" transform="translate(241,233)"/>
<path d="M0 0 C-0.66 1.32 -1.32 2.64 -2 4 C-2.495 3.505 -2.495 3.505 -3 3 C-5.60078014 3.03859605 -8.15696799 3.1458703 -10.75 3.3125 C-11.46671875 3.34794922 -12.1834375 3.38339844 -12.921875 3.41992188 C-17.02011749 3.67229526 -20.25826701 4.35257032 -24 6 C-27.3125 6.125 -27.3125 6.125 -30 6 C-30 6.66 -30 7.32 -30 8 C-34.455 8.495 -34.455 8.495 -39 9 C-39 8.34 -39 7.68 -39 7 C-13.18050727 -0.83734987 -13.18050727 -0.83734987 0 0 Z " fill="#8364CB" transform="translate(188,103)"/>
<path d="M0 0 C0.99 0.33 1.98 0.66 3 1 C2.34 1 1.68 1 1 1 C0.740979 1.70125 0.48195801 2.4025 0.21508789 3.125 C-1.11040644 6.26123091 -2.70468558 9.07152883 -4.44140625 12 C-5.10720703 13.134375 -5.77300781 14.26875 -6.45898438 15.4375 C-7.51177204 17.22303575 -8.5667684 19.00718228 -9.62573242 20.7890625 C-10.65390583 22.52233047 -11.67277176 24.26110892 -12.69140625 26 C-13.30185791 27.03125 -13.91230957 28.0625 -14.54125977 29.125 C-16.66753572 33.31563191 -17.35027504 35.76236152 -16.0625 40.3125 C-15.711875 41.199375 -15.36125 42.08625 -15 43 C-16.70840281 41.36587557 -17.93453047 40.13093906 -19 38 C-19.04022391 35.6670134 -19.04320247 33.33293334 -19 31 C-18.34 31 -17.68 31 -17 31 C-16.74734375 30.13761719 -16.4946875 29.27523437 -16.234375 28.38671875 C-14.93637345 24.8254297 -13.29317764 22.00001551 -11.25 18.8125 C-7.99004392 13.66402278 -4.98557551 8.43329224 -2.12890625 3.046875 C-1 1 -1 1 0 0 Z " fill="#17073C" transform="translate(230,149)"/>
<path d="M0 0 C0.66 0 1.32 0 2 0 C3 1.66666667 4 3.33333333 5 5 C5.66 5 6.32 5 7 5 C7.65134925 6.56020867 8.29582964 8.12328579 8.9375 9.6875 C9.29714844 10.55761719 9.65679687 11.42773438 10.02734375 12.32421875 C10.96472434 14.90295653 11.63416357 17.2816964 12 20 C11.67 20.66 11.34 21.32 11 22 C9.34162363 19.46578421 7.69838444 16.92367672 6.0625 14.375 C5.59392578 13.66214844 5.12535156 12.94929687 4.64257812 12.21484375 C2.04346956 8.13854399 0.36628564 4.94095943 0 0 Z " fill="#492B84" transform="translate(232,124)"/>
<path d="M0 0 C0.625 1.8125 0.625 1.8125 1 4 C0.01 5.485 0.01 5.485 -1 7 C-1.309375 8.155 -1.61875 9.31 -1.9375 10.5 C-2.97844816 13.9290057 -3.56764431 14.67820594 -6 17 C-6 18.32 -6 19.64 -6 21 C-6.99 21.33 -7.98 21.66 -9 22 C-9.33 22.99 -9.66 23.98 -10 25 C-12.0625 25.6875 -12.0625 25.6875 -14 26 C-9.74396837 17.10296905 -4.87769453 8.56518909 0 0 Z " fill="#8260CF" transform="translate(150,193)"/>
<path d="M0 0 C4.12400627 3.75951656 6.45850599 8.69774198 9.1875 13.5 C9.74630859 14.46292969 10.30511719 15.42585938 10.88085938 16.41796875 C11.40873047 17.34222656 11.93660156 18.26648438 12.48046875 19.21875 C12.96410889 20.06373047 13.44774902 20.90871094 13.94604492 21.77929688 C15 24 15 24 15 27 C12 26 12 26 10.9375 24.29296875 C10.628125 23.59816406 10.31875 22.90335938 10 22.1875 C8.89229233 19.80232103 7.92696756 17.90532832 6.3125 15.8125 C5 14 5 14 4.5625 11.375 C4.24928429 8.82191056 4.24928429 8.82191056 1.9375 7.6875 C1.298125 7.460625 0.65875 7.23375 0 7 C0 4.69 0 2.38 0 0 Z " fill="#452A80" transform="translate(205,102)"/>
<path d="M0 0 C1.890625 0.31640625 1.890625 0.31640625 4 1 C7 6.03571429 7 6.03571429 7 9 C3.95613276 9.08226668 1.92824652 8.97608217 -1 8 C-2.32 9.32 -3.64 10.64 -5 12 C-5.33 11.34 -5.66 10.68 -6 10 C-4.78515625 7.6171875 -4.78515625 7.6171875 -3.0625 4.875 C-2.21365234 3.50988281 -2.21365234 3.50988281 -1.34765625 2.1171875 C-0.90292969 1.41851562 -0.45820313 0.71984375 0 0 Z " fill="#5E3CA5" transform="translate(231,150)"/>
<path d="M0 0 C-0.47610659 4.99911924 -2.03162219 7.97832683 -5 12 C-5.66 11.01 -6.32 10.02 -7 9 C-6.125 6.4375 -6.125 6.4375 -5 4 C-5 3.34 -5 2.68 -5 2 C-6.44632813 2.45052734 -6.44632813 2.45052734 -7.921875 2.91015625 C-9.81679687 3.48056641 -9.81679687 3.48056641 -11.75 4.0625 C-13.00296875 4.44535156 -14.2559375 4.82820312 -15.546875 5.22265625 C-18.84522223 5.96515749 -19.93306589 5.94299411 -23 5 C-19.91882573 4.15854044 -16.83474379 3.32826938 -13.75 2.5 C-12.87730469 2.26152344 -12.00460938 2.02304688 -11.10546875 1.77734375 C-10.26113281 1.55175781 -9.41679687 1.32617188 -8.546875 1.09375 C-7.77182617 0.88427734 -6.99677734 0.67480469 -6.19824219 0.45898438 C-4 0 -4 0 0 0 Z " fill="#382664" transform="translate(168,233)"/>
<path d="M0 0 C0.99 0.33 1.98 0.66 3 1 C3 1.99 3 2.98 3 4 C3.99 4.33 4.98 4.66 6 5 C7.09765625 6.63671875 7.09765625 6.63671875 8.0625 8.6875 C8.40410156 9.41195312 8.74570313 10.13640625 9.09765625 10.8828125 C10 13 10 13 11 16.0625 C11.86627513 18.6071832 12.8125652 20.47408404 14.1875 22.75 C14.785625 23.8225 15.38375 24.895 16 26 C15.67 26.66 15.34 27.32 15 28 C5.24814356 11.50705446 5.24814356 11.50705446 1.875 5.5625 C1.50117188 4.90378906 1.12734375 4.24507812 0.7421875 3.56640625 C0 2 0 2 0 0 Z " fill="#371F6C" transform="translate(244,146)"/>
<path d="M0 0 C4.2539321 3.64622751 6.35595078 7.37501934 8.7265625 12.42578125 C10.29764161 15.6016743 12.18091485 18.48588756 14.1796875 21.40625 C14.45039063 21.9321875 14.72109375 22.458125 15 23 C14.67 23.66 14.34 24.32 14 25 C13.7525 24.21625 13.505 23.4325 13.25 22.625 C11.77676237 19.53120098 10.95856269 19.43445464 8 18 C5.89307111 15.03469268 4.87080001 12.48320006 4 9 C3.34 8.67 2.68 8.34 2 8 C2 6.68 2 5.36 2 4 C1.34 4 0.68 4 0 4 C0 2.68 0 1.36 0 0 Z " fill="#45287E" transform="translate(224,231)"/>
<path d="M0 0 C0.99 0 1.98 0 3 0 C1.2657267 4.97357688 -1.43327957 9.31498953 -4.125 13.8125 C-4.59292969 14.60076172 -5.06085938 15.38902344 -5.54296875 16.20117188 C-6.69215397 18.13602454 -7.84457003 20.06887228 -9 22 C-10.60031344 18.79937313 -9.03173691 16.27728194 -8 13 C-7.01 13 -6.02 13 -5 13 C-5.020625 11.906875 -5.04125 10.81375 -5.0625 9.6875 C-5 6 -5 6 -4 3 C-3.01 3 -2.02 3 -1 3 C-0.67 2.01 -0.34 1.02 0 0 Z " fill="#4C2F8C" transform="translate(210,158)"/>
<path d="M0 0 C0.68359375 1.734375 0.68359375 1.734375 1 4 C-0.21484375 6.140625 -0.21484375 6.140625 -1.9375 8.25 C-2.50339844 8.95640625 -3.06929688 9.6628125 -3.65234375 10.390625 C-4.09707031 10.92171875 -4.54179687 11.4528125 -5 12 C-7.65614176 11.63030147 -8.74758254 11.29524408 -10.51953125 9.22265625 C-10.94621094 8.50980469 -11.37289062 7.79695313 -11.8125 7.0625 C-12.25207031 6.35222656 -12.69164062 5.64195312 -13.14453125 4.91015625 C-13.42683594 4.27980469 -13.70914063 3.64945312 -14 3 C-13.67 2.34 -13.34 1.68 -13 1 C-8.2 4.44615385 -8.2 4.44615385 -7.1875 7.25 C-7.125625 7.8275 -7.06375 8.405 -7 9 C-6.01 9 -5.02 9 -4 9 C-4 7.35 -4 5.7 -4 4 C-3.01 4 -2.02 4 -1 4 C-0.67 2.68 -0.34 1.36 0 0 Z " fill="#462D7F" transform="translate(265,253)"/>
<path d="M0 0 C1.32 0.33 2.64 0.66 4 1 C4 3 4 3 2.42578125 4.5859375 C1.72839844 5.17632812 1.03101563 5.76671875 0.3125 6.375 C-0.41582031 6.99246094 -1.14414063 7.60992187 -1.89453125 8.24609375 C-2.58933594 8.82488281 -3.28414062 9.40367187 -4 10 C-4.94875 10.804375 -5.8975 11.60875 -6.875 12.4375 C-9 14 -9 14 -11 14 C-11 13.01 -11 12.02 -11 11 C-10.34 11 -9.68 11 -9 11 C-9 10.01 -9 9.02 -9 8 C-7.35 7.67 -5.7 7.34 -4 7 C-4 5.68 -4 4.36 -4 3 C-3.01 3 -2.02 3 -1 3 C-0.67 2.01 -0.34 1.02 0 0 Z " fill="#533298" transform="translate(245,276)"/>
<path d="M0 0 C0.33 0.66 0.66 1.32 1 2 C-2.63 2 -6.26 2 -10 2 C-10 1.34 -10 0.68 -10 0 C-14.15626368 -1.00926479 -18.04365094 -1.10239579 -22.3125 -1.0625 C-23.56675781 -1.05347656 -24.82101563 -1.04445312 -26.11328125 -1.03515625 C-27.06589844 -1.02355469 -28.01851562 -1.01195312 -29 -1 C-20.67429333 -6.55047111 -8.94124594 -2.78083393 0 0 Z " fill="#321D64" transform="translate(223,229)"/>
<path d="M0 0 C1.125 3.75 1.125 3.75 0 6 C-0.66 6 -1.32 6 -2 6 C-2.309375 7.093125 -2.61875 8.18625 -2.9375 9.3125 C-3.58337897 11.55407994 -4.2623117 13.7869351 -5 16 C-5.66 16 -6.32 16 -7 16 C-7.268125 17.134375 -7.53625 18.26875 -7.8125 19.4375 C-8.204375 20.613125 -8.59625 21.78875 -9 23 C-9.99 23.33 -10.98 23.66 -12 24 C-12 24.66 -12 25.32 -12 26 C-12.66 26 -13.32 26 -14 26 C-12.23570801 21.02790438 -9.6060834 16.56561939 -7 12 C-6.34 12 -5.68 12 -5 12 C-4.9175 11.319375 -4.835 10.63875 -4.75 9.9375 C-3.77667472 6.1253093 -2.04192545 3.35929671 0 0 Z " fill="#8563D5" transform="translate(199,109)"/>
<path d="M0 0 C1.26328125 0.01804688 2.5265625 0.03609375 3.828125 0.0546875 C4.79234375 0.07789063 5.7565625 0.10109375 6.75 0.125 C2.03140059 2.698533 -2.97948146 3.58740534 -8.1875 4.75 C-9.17685547 4.97945312 -10.16621094 5.20890625 -11.18554688 5.4453125 C-12.14396484 5.661875 -13.10238281 5.8784375 -14.08984375 6.1015625 C-14.95988037 6.29830566 -15.82991699 6.49504883 -16.72631836 6.69775391 C-19.28409655 7.13077237 -21.66113001 7.20104933 -24.25 7.125 C-20.7549512 5.28215609 -17.22706856 4.09037777 -13.46875 2.90625 C-11.25279069 2.20751969 -11.25279069 2.20751969 -9.421875 1.0390625 C-6.25505844 -0.2937344 -3.41415071 -0.06322501 0 0 Z " fill="#402C76" transform="translate(169.25,219.875)"/>
<path d="M0 0 C-3.00617269 3.00617269 -5.82381598 2.59585316 -10 3 C-10.33 3.99 -10.66 4.98 -11 6 C-11.99 6 -12.98 6 -14 6 C-14 6.66 -14 7.32 -14 8 C-16 9.625 -16 9.625 -18 11 C-19.32 10.34 -20.64 9.68 -22 9 C-18.25 6 -18.25 6 -16 6 C-16 5.34 -16 4.68 -16 4 C-13.90049414 3.13444052 -11.7952093 2.28288723 -9.6875 1.4375 C-7.92986328 0.72400391 -7.92986328 0.72400391 -6.13671875 -0.00390625 C-3 -1 -3 -1 0 0 Z " fill="#8562DB" transform="translate(138,114)"/>
<path d="M0 0 C0 0.33 0 0.66 0 1 C-3 2 -6 3 -9 4 C-9 2.68 -9 1.36 -9 0 C-19.68393009 0.46884661 -19.68393009 0.46884661 -30 3 C-30 2.34 -30 1.68 -30 1 C-21.43595012 -2.29386534 -8.42221756 -4.49184936 0 0 Z " fill="#5E3EA4" transform="translate(213,229)"/>
<path d="M0 0 C0.99 0.33 1.98 0.66 3 1 C2.67 1.66 2.34 2.32 2 3 C2.99 3.33 3.98 3.66 5 4 C5.84375 5.77734375 5.84375 5.77734375 6.5 7.9375 C7.56175093 11.41979025 7.76336466 11.8422431 11 14 C13.32387947 14.39387788 15.65793749 14.73486085 18 15 C18 15.99 18 16.98 18 18 C10.81310466 17.75637643 10.81310466 17.75637643 7.3125 14.5 C0 4.25255102 0 4.25255102 0 0 Z " fill="#472C89" transform="translate(222,204)"/>
<path d="M0 0 C0.33 1.32 0.66 2.64 1 4 C0.34 4 -0.32 4 -1 4 C-1.12375 4.66 -1.2475 5.32 -1.375 6 C-1.58125 6.99 -1.7875 7.98 -2 9 C-2.1340625 9.67417969 -2.268125 10.34835938 -2.40625 11.04296875 C-3.65858209 16.77238806 -3.65858209 16.77238806 -7 19 C-7.99 19 -8.98 19 -10 19 C-8.40376856 14.60616294 -6.21975667 10.71004193 -3.875 6.6875 C-3.50246094 6.04232422 -3.12992188 5.39714844 -2.74609375 4.73242188 C-1.83367787 3.15324055 -0.91724491 1.57638136 0 0 Z " fill="#805FCF" transform="translate(162,173)"/>
<path d="M0 0 C1.32 0 2.64 0 4 0 C2.70062418 4.39189026 0.99867186 7.91729147 -1.5 11.75 C-2.1084375 12.69359375 -2.716875 13.6371875 -3.34375 14.609375 C-5 17 -5 17 -7 19 C-7.33 17.02 -7.66 15.04 -8 13 C-7.34 13 -6.68 13 -6 13 C-5.7525 12.21625 -5.505 11.4325 -5.25 10.625 C-3.84610901 7.67682892 -2.99324263 7.0975223 0 6 C0 4.02 0 2.04 0 0 Z " fill="#553B8E" transform="translate(175,121)"/>
<path d="M0 0 C0.33 0.66 0.66 1.32 1 2 C0.01196289 4.15478516 0.01196289 4.15478516 -1.52734375 6.7890625 C-2.07197266 7.73007813 -2.61660156 8.67109375 -3.17773438 9.640625 C-3.75845703 10.62546875 -4.33917969 11.6103125 -4.9375 12.625 C-5.51435547 13.61757812 -6.09121094 14.61015625 -6.68554688 15.6328125 C-8.11659874 18.09280248 -9.55499196 20.54819042 -11 23 C-11.33 23 -11.66 23 -12 23 C-12 21.35 -12 19.7 -12 18 C-11.34 18 -10.68 18 -10 18 C-10 16.02 -10 14.04 -10 12 C-8.68 12 -7.36 12 -6 12 C-5.814375 10.5459375 -5.814375 10.5459375 -5.625 9.0625 C-5.41875 8.051875 -5.2125 7.04125 -5 6 C-4.34 5.67 -3.68 5.34 -3 5 C-2.835 4.34 -2.67 3.68 -2.5 3 C-2.335 2.34 -2.17 1.68 -2 1 C-1.34 0.67 -0.68 0.34 0 0 Z " fill="#473180" transform="translate(140,186)"/>
<path d="M0 0 C3.24741424 2.78496601 5.16089095 6.39536751 7.25 10.0625 C7.62640625 10.69994141 8.0028125 11.33738281 8.390625 11.99414062 C9.32643643 13.6266499 10.17105723 15.31071511 11 17 C10.67 17.66 10.34 18.32 10 19 C9.34 18.67 8.68 18.34 8 18 C8 17.01 8 16.02 8 15 C6.68 15 5.36 15 4 15 C2.23107476 10.07227969 1.0681847 5.11365014 0 0 Z " fill="#48277E" transform="translate(251,181)"/>
<path d="M0 0 C0 0.66 0 1.32 0 2 C1.11375 2.103125 2.2275 2.20625 3.375 2.3125 C5.169375 2.6528125 5.169375 2.6528125 7 3 C7.99 4.485 7.99 4.485 9 6 C8.030625 5.855625 7.06125 5.71125 6.0625 5.5625 C1.71947831 4.93952558 -2.63765234 4.46492141 -7 4 C-7 3.01 -7 2.02 -7 1 C-4.53721199 -0.231394 -2.7204945 -0.07159196 0 0 Z " fill="#6C3FC7" transform="translate(247,218)"/>
<path d="M0 0 C3.96189783 4.23513217 5.43181728 8.547001 7 14 C7.99 14 8.98 14 10 14 C10 14.99 10 15.98 10 17 C8.19921875 16.80078125 8.19921875 16.80078125 6 16 C4.33203125 13.85546875 4.33203125 13.85546875 2.8125 11.1875 C2.30332031 10.31480469 1.79414063 9.44210938 1.26953125 8.54296875 C0.14927687 6.29901306 -0.64057233 4.47307698 -1 2 C-0.67 1.34 -0.34 0.68 0 0 Z " fill="#442A7C" transform="translate(277,199)"/>
<path d="M0 0 C7.75 -0.125 7.75 -0.125 10 1 C11.53668865 1.22467831 13.07968054 1.40796805 14.625 1.5625 C15.85089844 1.68818359 15.85089844 1.68818359 17.1015625 1.81640625 C17.72804688 1.87699219 18.35453125 1.93757812 19 2 C19 2.66 19 3.32 19 4 C22.3 4.66 25.6 5.32 29 6 C29 6.33 29 6.66 29 7 C22.51093459 6.33425862 16.32918678 4.99578944 10 3.4375 C9.03449219 3.20353516 8.06898438 2.96957031 7.07421875 2.72851562 C4.71515983 2.15626866 2.35715708 1.58002171 0 1 C0 0.67 0 0.34 0 0 Z " fill="#29135C" transform="translate(241,222)"/>
<path d="M0 0 C7.72329019 1.43993546 14.7282249 4.05532446 22 7 C18.20813511 8.26395496 17.64463604 7.4733635 14 6 C11.44387796 5.42742866 8.88082621 4.93857139 6.3046875 4.46484375 C4 4 4 4 1 3 C0.67 2.01 0.34 1.02 0 0 Z " fill="#391F6C" transform="translate(264,111)"/>
<path d="M0 0 C0.33 0.66 0.66 1.32 1 2 C0.22265625 3.7265625 0.22265625 3.7265625 -0.9375 5.625 C-1.618125 6.73875 -2.29875 7.8525 -3 9 C-6.3 9 -9.6 9 -13 9 C-9 7 -9 7 -5 7 C-5 5.35 -5 3.7 -5 2 C-3.35 1.34 -1.7 0.68 0 0 Z " fill="#8663DA" transform="translate(181,211)"/>
<path d="M0 0 C1.65 0 3.3 0 5 0 C5.33 0.99 5.66 1.98 6 3 C9.00847418 4.22520264 9.00847418 4.22520264 12 5 C12 5.99 12 6.98 12 8 C7.9642154 6.77987907 4.44593665 5.46138332 1 3 C0.67 2.01 0.34 1.02 0 0 Z " fill="#6E4FB0" transform="translate(190,300)"/>
<path d="M0 0 C0.99 0 1.98 0 3 0 C1.23570801 4.97209562 -1.3939166 9.43438061 -4 14 C-4.33 14 -4.66 14 -5 14 C-5.25 10.75 -5.25 10.75 -5 7 C-3.0625 4.75 -3.0625 4.75 -1 3 C-0.67 2.01 -0.34 1.02 0 0 Z " fill="#6A4EB0" transform="translate(187,197)"/>
<path d="M0 0 C1.88581069 1.70620967 3.13605066 3.23069459 4.4375 5.4375 C5.87081394 8.07231434 5.87081394 8.07231434 8.125 9.875 C10.66950241 12.75876939 10.71087748 15.24140726 11 19 C7.75177521 16.22312644 5.87816944 12.60938618 3.8125 8.9375 C3.44447266 8.30005859 3.07644531 7.66261719 2.69726562 7.00585938 C0 2.25687036 0 2.25687036 0 0 Z " fill="#2E1B5C" transform="translate(221,107)"/>
<path d="M0 0 C1 2 1 2 0.36328125 4.2421875 C-1.52775769 8.98032968 -3.00987407 12.65344277 -7 16 C-8.02323436 17.31558703 -9.03126968 18.64377755 -10 20 C-9.46323088 14.9738891 -7.05581499 11.37760591 -4.4375 7.1875 C-4.01275391 6.49462891 -3.58800781 5.80175781 -3.15039062 5.08789062 C-2.10690544 3.38783049 -1.05434704 1.69334524 0 0 Z " fill="#3B296C" transform="translate(168,256)"/>
<path d="M0 0 C6.57534861 0.62031591 12.66692592 2.14897283 19 4 C19 4.33 19 4.66 19 5 C16.70890403 5.08075665 14.41700733 5.13907731 12.125 5.1875 C10.21074219 5.23970703 10.21074219 5.23970703 8.2578125 5.29296875 C7.18273437 5.19628906 6.10765625 5.09960938 5 5 C4.34 4.01 3.68 3.02 3 2 C2.01 1.34 1.02 0.68 0 0 Z " fill="#6C45BC" transform="translate(245,107)"/>
<path d="M0 0 C1.32 0 2.64 0 4 0 C4 0.66 4 1.32 4 2 C4.66 2 5.32 2 6 2 C5.67 3.32 5.34 4.64 5 6 C4.34 6 3.68 6 3 6 C2.67 8.64 2.34 11.28 2 14 C1.34 13.34 0.68 12.68 0 12 C1 9 2 6 3 3 C2.01 2.67 1.02 2.34 0 2 C0 1.34 0 0.68 0 0 Z " fill="#6A40C0" transform="translate(265,241)"/>
<path d="M0 0 C-2 2 -2 2 -5.125 2.125 C-6.07375 2.08375 -7.0225 2.0425 -8 2 C-8 2.66 -8 3.32 -8 4 C-12.455 4.495 -12.455 4.495 -17 5 C-17 4.34 -17 3.68 -17 3 C-11.17745757 1.03181664 -6.16618181 -0.40214229 0 0 Z " fill="#8666D8" transform="translate(166,107)"/>
<path d="M0 0 C4.2765755 2.92607798 5.57635591 5.07200123 7 10 C7.66 10.33 8.32 10.66 9 11 C9.625 14.0625 9.625 14.0625 10 17 C7.40076024 14.62644274 5.67899574 12.07671398 3.875 9.0625 C3.35679687 8.20785156 2.83859375 7.35320312 2.3046875 6.47265625 C1.14089077 4.26701754 0.46313003 2.43425662 0 0 Z " fill="#352069" transform="translate(240,235)"/>
<path d="M0 0 C0.66 0 1.32 0 2 0 C2 0.66 2 1.32 2 2 C3.32 2 4.64 2 6 2 C7.10844919 5.32534757 6.84454356 7.62182575 6 11 C2.90407165 7.4912812 1.25805377 4.50802601 0 0 Z " fill="#6F43C3" transform="translate(253,159)"/>
<path d="M0 0 C0.33 0.66 0.66 1.32 1 2 C-0.24493748 4.28974316 -1.52641528 6.44190034 -2.9375 8.625 C-3.32357422 9.23601562 -3.70964844 9.84703125 -4.10742188 10.4765625 C-5.06446326 11.9889242 -6.03132811 13.49506117 -7 15 C-8 13 -8 13 -7.36328125 10.72265625 C-7.01652344 9.84480469 -6.66976562 8.96695313 -6.3125 8.0625 C-5.81169922 6.74958984 -5.81169922 6.74958984 -5.30078125 5.41015625 C-3.87626037 2.77072867 -2.50459021 1.59766491 0 0 Z " fill="#422D7A" transform="translate(167,140)"/>
<path d="M0 0 C0.33 0.99 0.66 1.98 1 3 C0.01 3.99 -0.98 4.98 -2 6 C-1.67 4.68 -1.34 3.36 -1 2 C-9.415 2.495 -9.415 2.495 -18 3 C-18 2.67 -18 2.34 -18 2 C-16.12612523 1.6603981 -14.25083303 1.32861309 -12.375 1 C-11.33085937 0.814375 -10.28671875 0.62875 -9.2109375 0.4375 C-6.09425135 0.01284203 -3.14069188 -0.07545206 0 0 Z " fill="#1F1444" transform="translate(189,101)"/>
<path d="M0 0 C1.65 0 3.3 0 5 0 C5 0.66 5 1.32 5 2 C5.99 2 6.98 2 8 2 C8.99 3.98 9.98 5.96 11 8 C9.0625 7.625 9.0625 7.625 7 7 C6.67 6.34 6.34 5.68 6 5 C3.69034152 3.94647157 1.3570226 2.94280904 -1 2 C-0.67 1.34 -0.34 0.68 0 0 Z " fill="#8D63EA" transform="translate(189,296)"/>
<path d="M0 0 C2.48982535 2.27745789 4.10368997 4.62335238 5.75 7.5625 C6.19859375 8.34753906 6.6471875 9.13257812 7.109375 9.94140625 C7.40328125 10.62074219 7.6971875 11.30007812 8 12 C7.67 12.66 7.34 13.32 7 14 C6.34 14 5.68 14 5 14 C4.9175 13.21625 4.835 12.4325 4.75 11.625 C4.27193661 8.85250896 4.27193661 8.85250896 1.9375 7.6875 C1.298125 7.460625 0.65875 7.23375 0 7 C0 4.69 0 2.38 0 0 Z " fill="#3A206F" transform="translate(205,102)"/>
<path d="M0 0 C0.66 0 1.32 0 2 0 C2.69670416 1.78810766 3.38211189 3.58062052 4.0625 5.375 C4.63677734 6.87160156 4.63677734 6.87160156 5.22265625 8.3984375 C6 11 6 11 5 13 C3.96679519 11.40377344 2.94877571 9.79770894 1.9375 8.1875 C1.36902344 7.29417969 0.80054688 6.40085938 0.21484375 5.48046875 C-1 3 -1 3 0 0 Z " fill="#432880" transform="translate(216,191)"/>
<path d="M0 0 C0.928125 0.495 1.85625 0.99 2.8125 1.5 C5.86527516 3.21289852 5.86527516 3.21289852 9 3 C8.6875 4.9375 8.6875 4.9375 8 7 C7.01 7.33 6.02 7.66 5 8 C0 2.25 0 2.25 0 0 Z " fill="#463477" transform="translate(144,258)"/>
<path d="M0 0 C1.32 0 2.64 0 4 0 C4.58305225 3.84814487 3.7002883 5.76308635 1.5 8.8125 C0.67780256 9.88364055 -0.15204049 10.9491359 -1 12 C-2.34882814 9.30234372 -1.80338265 7.84835666 -1 5 C-0.34 4.67 0.32 4.34 1 4 C1.33 3.01 1.66 2.02 2 1 C1.34 0.67 0.68 0.34 0 0 Z " fill="#442B77" transform="translate(269,242)"/>
<path d="M0 0 C-1.65 0.33 -3.3 0.66 -5 1 C-5 1.66 -5 2.32 -5 3 C-6.32 3.33 -7.64 3.66 -9 4 C-8.67 5.32 -8.34 6.64 -8 8 C-9.5625 6.75 -9.5625 6.75 -11 5 C-11.0625 2.9375 -11.0625 2.9375 -10 1 C-6.36961463 -0.69417984 -3.80522763 -1.46354909 0 0 Z " fill="#35265E" transform="translate(145,240)"/>
<path d="M0 0 C3.65882521 3.3621637 6.14420341 6.36050852 8 11 C7.67 11.66 7.34 12.32 7 13 C4.5 10.75 4.5 10.75 2 8 C2 6.68 2 5.36 2 4 C1.34 4 0.68 4 0 4 C0 2.68 0 1.36 0 0 Z " fill="#3C236B" transform="translate(224,231)"/>
<path d="M0 0 C1.32 0 2.64 0 4 0 C2.52307692 5.66153846 2.52307692 5.66153846 -0.125 7.375 C-1.053125 7.684375 -1.053125 7.684375 -2 8 C-2.20086443 4.28400809 -2.1519437 3.22791555 0 0 Z " fill="#6449A7" transform="translate(155,155)"/>
<path d="M0 0 C1.65 0 3.3 0 5 0 C4.3125 2.4375 4.3125 2.4375 3 5 C0.375 5.8125 0.375 5.8125 -2 6 C-2 5.34 -2 4.68 -2 4 C-2.66 3.67 -3.32 3.34 -4 3 C-2.68 2.67 -1.36 2.34 0 2 C0 1.34 0 0.68 0 0 Z " fill="#8B68EB" transform="translate(140,241)"/>
<path d="M0 0 C0.66 0 1.32 0 2 0 C2.99 3.63 3.98 7.26 5 11 C4.01 11 3.02 11 2 11 C-0.32590854 7.36576791 -0.16265833 4.22911669 0 0 Z " fill="#7045D0" transform="translate(220,193)"/>
<path d="M0 0 C0.99 0 1.98 0 3 0 C1.43358249 4.30764815 -0.68336156 8.06171464 -3 12 C-4 10 -4 10 -3.4765625 7.87109375 C-3.05503906 6.66646484 -3.05503906 6.66646484 -2.625 5.4375 C-2.34914062 4.63183594 -2.07328125 3.82617188 -1.7890625 2.99609375 C-1 1 -1 1 0 0 Z " fill="#4B3485" transform="translate(197,180)"/>
<path d="M0 0 C0.33 1.32 0.66 2.64 1 4 C0.01 4.33 -0.98 4.66 -2 5 C-2.33 5.99 -2.66 6.98 -3 8 C-5.0625 8.6875 -5.0625 8.6875 -7 9 C-4.53846154 2.35384615 -4.53846154 2.35384615 -1.8125 0.5625 C-1.214375 0.376875 -0.61625 0.19125 0 0 Z " fill="#8663DA" transform="translate(143,210)"/>
<path d="M0 0 C0.99 0.33 1.98 0.66 3 1 C2.67 1.66 2.34 2.32 2 3 C2.99 3.33 3.98 3.66 5 4 C5.94921875 6.28515625 5.94921875 6.28515625 6.6875 9.0625 C6.93886719 9.98160156 7.19023437 10.90070313 7.44921875 11.84765625 C7.63097656 12.55792969 7.81273437 13.26820313 8 14 C5.50447597 11.72402354 3.93377014 9.39278822 2.3125 6.4375 C1.87550781 5.65246094 1.43851563 4.86742187 0.98828125 4.05859375 C0 2 0 2 0 0 Z " fill="#321C69" transform="translate(222,204)"/>
<path d="M0 0 C0.99 0.33 1.98 0.66 3 1 C1.43358249 5.30764815 -0.68336156 9.06171464 -3 13 C-4 11 -4 11 -3.22265625 8.3984375 C-2.83980469 7.40070313 -2.45695313 6.40296875 -2.0625 5.375 C-1.68222656 4.37210938 -1.30195313 3.36921875 -0.91015625 2.3359375 C-0.60980469 1.56507813 -0.30945313 0.79421875 0 0 Z " fill="#4B3584" transform="translate(152,161)"/>
<path d="M0 0 C1.2046356 4.81854242 0.39536735 5.83028646 -2 10 C-2.99 11.485 -2.99 11.485 -4 13 C-4.66 12.34 -5.32 11.68 -6 11 C-4.02 7.37 -2.04 3.74 0 0 Z " fill="#8062CC" transform="translate(175,150)"/>
<path d="M0 0 C0.66 0 1.32 0 2 0 C3.125 4.75 3.125 4.75 2 7 C4.475 7.99 4.475 7.99 7 9 C6.67 9.99 6.34 10.98 6 12 C5.67 11.34 5.34 10.68 5 10 C3.68 10.33 2.36 10.66 1 11 C0.67 7.37 0.34 3.74 0 0 Z " fill="#6F49C2" transform="translate(203,102)"/>
<path d="M0 0 C0.66 0.33 1.32 0.66 2 1 C0.66654496 4.59007126 -0.8943231 7.79570907 -3 11 C-3.33 11 -3.66 11 -4 11 C-3.67 8.36 -3.34 5.72 -3 3 C-2.01 3 -1.02 3 0 3 C0 2.01 0 1.02 0 0 Z " fill="#5A4194" transform="translate(185,106)"/>
<path d="M0 0 C0.66 0.33 1.32 0.66 2 1 C1.67 1.99 1.34 2.98 1 4 C2.32 4 3.64 4 5 4 C5 4.66 5 5.32 5 6 C4.34 6 3.68 6 3 6 C3 6.66 3 7.32 3 8 C1.0625 7.6875 1.0625 7.6875 -1 7 C-2 4 -2 4 -1.0625 1.8125 C-0.5365625 0.9153125 -0.5365625 0.9153125 0 0 Z " fill="#8B68D8" transform="translate(161,270)"/>
<path d="M0 0 C0 0.99 0 1.98 0 3 C-6.435 3.495 -6.435 3.495 -13 4 C-11.68 3.67 -10.36 3.34 -9 3 C-9 2.34 -9 1.68 -9 1 C-2.25 0 -2.25 0 0 0 Z " fill="#8B63E3" transform="translate(201,228)"/>
<path d="M0 0 C-2.26375987 2.26375987 -3.24863773 2.44972755 -6.3125 3.0625 C-7.11171875 3.22621094 -7.9109375 3.38992187 -8.734375 3.55859375 C-9.85585937 3.77708984 -9.85585937 3.77708984 -11 4 C-12.5159375 4.309375 -12.5159375 4.309375 -14.0625 4.625 C-14.701875 4.74875 -15.34125 4.8725 -16 5 C-11.82639458 1.18931679 -5.49060888 -1.83020296 0 0 Z " fill="#361F60" transform="translate(138,114)"/>
<path d="M0 0 C-2.64 1.98 -5.28 3.96 -8 6 C-8.66 5.67 -9.32 5.34 -10 5 C-9.375 3.125 -9.375 3.125 -8 1 C-2.66666667 -1.33333333 -2.66666667 -1.33333333 0 0 Z " fill="#442882" transform="translate(235,291)"/>
<path d="M0 0 C2.875 0.6875 2.875 0.6875 6 2 C7.3125 4.5 7.3125 4.5 8 7 C8.33 7.66 8.66 8.32 9 9 C5.18063472 7.44396229 2.73955562 5.04395069 0 2 C0 1.34 0 0.68 0 0 Z " fill="#473182" transform="translate(159,276)"/>
<path d="M0 0 C0.99 0.33 1.98 0.66 3 1 C3 1.99 3 2.98 3 4 C0 6 0 6 -3 6 C-1.125 1.125 -1.125 1.125 0 0 Z " fill="#8563DD" transform="translate(155,186)"/>
<path d="M0 0 C2.64 0.66 5.28 1.32 8 2 C7.01 2.495 7.01 2.495 6 3 C5.34786708 5.02463255 5.34786708 5.02463255 5 7 C0 1.125 0 1.125 0 0 Z " fill="#6646B1" transform="translate(240,234)"/>
<path d="M0 0 C0.33 0 0.66 0 1 0 C0.88557539 1.60495567 0.75805306 3.20898119 0.625 4.8125 C0.55539062 5.70582031 0.48578125 6.59914062 0.4140625 7.51953125 C0 10 0 10 -2 13 C-2.05447047 11.58376784 -2.09300508 10.16691809 -2.125 8.75 C-2.14820313 7.96109375 -2.17140625 7.1721875 -2.1953125 6.359375 C-1.9828378 3.79268059 -1.28654105 2.2083933 0 0 Z " fill="#6D45B8" transform="translate(289,195)"/>
<path d="M0 0 C0.33 0 0.66 0 1 0 C0.125 6.75 0.125 6.75 -1 9 C-1.66 9 -2.32 9 -3 9 C-3.25873987 5.89512156 -3.23307327 4.37494396 -1.5625 1.6875 C-1.046875 1.130625 -0.53125 0.57375 0 0 Z " fill="#8761DD" transform="translate(160,146)"/>
<path d="M0 0 C0.99 0 1.98 0 3 0 C3 0.99 3 1.98 3 3 C3.99 3.33 4.98 3.66 6 4 C6.33 5.98 6.66 7.96 7 10 C4.4000702 7.48972295 2.00908773 5.0136316 0 2 C0 1.34 0 0.68 0 0 Z " fill="#4F3886" transform="translate(137,248)"/>
<path d="M0 0 C0.99 0.99 1.98 1.98 3 3 C2.67 3.99 2.34 4.98 2 6 C-2.455 5.01 -2.455 5.01 -7 4 C-5.68 3.34 -4.36 2.68 -3 2 C-2.67 2.66 -2.34 3.32 -2 4 C-1.01 4 -0.02 4 1 4 C0.67 2.68 0.34 1.36 0 0 Z " fill="#231452" transform="translate(277,226)"/>
<path d="M0 0 C0.33 0.66 0.66 1.32 1 2 C0.0390625 3.9453125 0.0390625 3.9453125 -1.375 6.125 C-1.83648437 6.84945312 -2.29796875 7.57390625 -2.7734375 8.3203125 C-3.17820313 8.87460938 -3.58296875 9.42890625 -4 10 C-4.33 10 -4.66 10 -5 10 C-4.67 7.69 -4.34 5.38 -4 3 C-3.34 3 -2.68 3 -2 3 C-1.34 2.01 -0.68 1.02 0 0 Z " fill="#371D6D" transform="translate(220,144)"/>
<path d="M0 0 C0 0.66 0 1.32 0 2 C-4.12168689 3.62950412 -6.70700357 4.26264601 -11 3 C-7.11595442 0.41063628 -4.5725325 -0.12358196 0 0 Z " fill="#50368A" transform="translate(149,110)"/>
<path d="M0 0 C0.66 0.99 1.32 1.98 2 3 C1.67 3.99 1.34 4.98 1 6 C0.34 6 -0.32 6 -1 6 C-2.62514468 7.45833358 -2.62514468 7.45833358 -4 9 C-2.94124926 5.59687262 -1.99097846 2.98646769 0 0 Z " fill="#422A76" transform="translate(173,247)"/>
<path d="M0 0 C0.99 0 1.98 0 3 0 C1.7508258 3.45925163 0.32472205 6.14693203 -2 9 C-2.20140476 5.37471432 -1.85776765 3.13498292 0 0 Z " fill="#543E91" transform="translate(187,197)"/>
<path d="M0 0 C2.6815279 3.07692746 3.42087807 5.19734663 3.6875 9.25 C3.75324219 10.14203125 3.81898437 11.0340625 3.88671875 11.953125 C3.92410156 12.62859375 3.96148437 13.3040625 4 14 C3.67 14 3.34 14 3 14 C2.67 11.36 2.34 8.72 2 6 C1.34 6 0.68 6 0 6 C0 4.02 0 2.04 0 0 Z " fill="#8A67E2" transform="translate(118,193)"/>
<path d="M0 0 C3.51716303 3.51716303 3.54676163 5.19567333 4 10 C3.01 9.67 2.02 9.34 1 9 C0.67 6.03 0.34 3.06 0 0 Z " fill="#57349D" transform="translate(248,176)"/>
<path d="M0 0 C0.99 0 1.98 0 3 0 C3 1.32 3 2.64 3 4 C3.66 4 4.32 4 5 4 C5 5.65 5 7.3 5 9 C3.5 7.6875 3.5 7.6875 2 6 C2 5.01 2 4.02 2 3 C1.34 3 0.68 3 0 3 C0 2.01 0 1.02 0 0 Z " fill="#7243CE" transform="translate(232,121)"/>
<path d="M0 0 C0 0.66 0 1.32 0 2 C-4.43076923 4.09230769 -4.43076923 4.09230769 -7.3125 3.625 C-7.869375 3.41875 -8.42625 3.2125 -9 3 C-3.375 0 -3.375 0 0 0 Z " fill="#8C63E9" transform="translate(172,106)"/>
<path d="M0 0 C0 0.66 0 1.32 0 2 C-3 4 -3 4 -7 4 C-7 3.01 -7 2.02 -7 1 C-4.50935112 0.31292445 -2.62113708 0 0 0 Z " fill="#8461DA" transform="translate(160,220)"/>
<path d="M0 0 C0.33 0.66 0.66 1.32 1 2 C0.22265625 3.7265625 0.22265625 3.7265625 -0.9375 5.625 C-1.618125 6.73875 -2.29875 7.8525 -3 9 C-3.66 8.67 -4.32 8.34 -5 8 C-4.67 6.68 -4.34 5.36 -4 4 C-3.34 4 -2.68 4 -2 4 C-2 3.01 -2 2.02 -2 1 C-1.34 0.67 -0.68 0.34 0 0 Z " fill="#422F77" transform="translate(181,211)"/>
<path d="M0 0 C0.33 0.66 0.66 1.32 1 2 C-0.28965176 3.37562854 -1.62689293 4.70766393 -3 6 C-3.66 6 -4.32 6 -5 6 C-5.33 4.68 -5.66 3.36 -6 2 C-4.7934375 1.7834375 -4.7934375 1.7834375 -3.5625 1.5625 C-1.07896294 1.25864751 -1.07896294 1.25864751 0 0 Z " fill="#5A4499" transform="translate(127,209)"/>
<path d="M0 0 C0.66 0 1.32 0 2 0 C1.75 2.375 1.75 2.375 1 5 C-1.0625 6.3125 -1.0625 6.3125 -3 7 C-3 6.01 -3 5.02 -3 4 C-2.34 4 -1.68 4 -1 4 C-0.67 2.68 -0.34 1.36 0 0 Z " fill="#8564DC" transform="translate(166,136)"/>
<path d="M0 0 C1.98 0.66 3.96 1.32 6 2 C6 2.66 6 3.32 6 4 C3.36 3.34 0.72 2.68 -2 2 C-1.34 1.34 -0.68 0.68 0 0 Z M2 4 C4 5 4 5 4 5 Z " fill="#6E3FD2" transform="translate(266,114)"/>
<path d="M0 0 C0.66 0.33 1.32 0.66 2 1 C2.1875 3.375 2.1875 3.375 2 6 C1.01 6.66 0.02 7.32 -1 8 C-1 4.88742431 -0.82638376 2.89234315 0 0 Z " fill="#7340CD" transform="translate(227,239)"/>
<path d="M0 0 C0.33 0.99 0.66 1.98 1 3 C0.34 3 -0.32 3 -1 3 C-1.12375 3.639375 -1.2475 4.27875 -1.375 4.9375 C-1.58125 5.618125 -1.7875 6.29875 -2 7 C-2.99 7.495 -2.99 7.495 -4 8 C-3.6875 5.125 -3.6875 5.125 -3 2 C-2.01 1.34 -1.02 0.68 0 0 Z " fill="#7045CC" transform="translate(235,284)"/>
<path d="M0 0 C0.99 0 1.98 0 3 0 C3.66 2.31 4.32 4.62 5 7 C4.01 7.495 4.01 7.495 3 8 C0 2.25 0 2.25 0 0 Z " fill="#6D44C6" transform="translate(240,263)"/>
<path d="M0 0 C0.99 0.33 1.98 0.66 3 1 C2.34 4.3 1.68 7.6 1 11 C0.67 11 0.34 11 0 11 C0 7.37 0 3.74 0 0 Z " fill="#7145D0" transform="translate(204,160)"/>
<path d="" fill="#000000" transform="translate(0,0)"/>
<path d="" fill="#000000" transform="translate(0,0)"/>
<path d="" fill="#000000" transform="translate(0,0)"/>
<path d="" fill="#000000" transform="translate(0,0)"/>
<path d="" fill="#000000" transform="translate(0,0)"/>
<path d="" fill="#000000" transform="translate(0,0)"/>
<path d="" fill="#000000" transform="translate(0,0)"/>
<path d="" fill="#000100" transform="translate(0,0)"/>
<path d="" fill="#000000" transform="translate(0,0)"/>
<path d="" fill="#000000" transform="translate(0,0)"/>
<path d="" fill="#000000" transform="translate(0,0)"/>
<path d="" fill="#000000" transform="translate(0,0)"/>
<path d="" fill="#000000" transform="translate(0,0)"/>
<path d="" fill="#000000" transform="translate(0,0)"/>
<path d="" fill="#000000" transform="translate(0,0)"/>
<path d="" fill="#000000" transform="translate(0,0)"/>
<path d="" fill="#000000" transform="translate(0,0)"/>
<path d="" fill="#000000" transform="translate(0,0)"/>
<path d="" fill="#000000" transform="translate(0,0)"/>
<path d="" fill="#000000" transform="translate(0,0)"/>
<path d="" fill="#000000" transform="translate(0,0)"/>
<path d="" fill="#000000" transform="translate(0,0)"/>
<path d="" fill="#000000" transform="translate(0,0)"/>
<path d="" fill="#000000" transform="translate(0,0)"/>
<path d="" fill="#000100" transform="translate(0,0)"/>
<path d="" fill="#000000" transform="translate(0,0)"/>
<path d="" fill="#000000" transform="translate(0,0)"/>
<path d="" fill="#000000" transform="translate(0,0)"/>
<path d="" fill="#000000" transform="translate(0,0)"/>
<path d="" fill="#000000" transform="translate(0,0)"/>
<path d="" fill="#000000" transform="translate(0,0)"/>
<path d="" fill="#000000" transform="translate(0,0)"/>
<path d="" fill="#000000" transform="translate(0,0)"/>
<path d="" fill="#000000" transform="translate(0,0)"/>
<path d="" fill="#000000" transform="translate(0,0)"/>
<path d="" fill="#000000" transform="translate(0,0)"/>
<path d="" fill="#000000" transform="translate(0,0)"/>
<path d="" fill="#000000" transform="translate(0,0)"/>
<path d="" fill="#000000" transform="translate(0,0)"/>
<path d="" fill="#000000" transform="translate(0,0)"/>
<path d="" fill="#000000" transform="translate(0,0)"/>
<path d="" fill="#000000" transform="translate(0,0)"/>
<path d="" fill="#000000" transform="translate(0,0)"/>
<path d="" fill="#000000" transform="translate(0,0)"/>
<path d="" fill="#000000" transform="translate(0,0)"/>
<path d="" fill="#000000" transform="translate(0,0)"/>
<path d="" fill="#000000" transform="translate(0,0)"/>
<path d="" fill="#000000" transform="translate(0,0)"/>
<path d="" fill="#000000" transform="translate(0,0)"/>
<path d="" fill="#000000" transform="translate(0,0)"/>
<path d="" fill="#000000" transform="translate(0,0)"/>
<path d="" fill="#000000" transform="translate(0,0)"/>
<path d="" fill="#000000" transform="translate(0,0)"/>
<path d="" fill="#000000" transform="translate(0,0)"/>
<path d="" fill="#000000" transform="translate(0,0)"/>
<path d="" fill="#000000" transform="translate(0,0)"/>
<path d="" fill="#000000" transform="translate(0,0)"/>
<path d="" fill="#000000" transform="translate(0,0)"/>
<path d="" fill="#000000" transform="translate(0,0)"/>
<path d="" fill="#000000" transform="translate(0,0)"/>
<path d="" fill="#000000" transform="translate(0,0)"/>
<path d="" fill="#000000" transform="translate(0,0)"/>
<path d="" fill="#000000" transform="translate(0,0)"/>
<path d="" fill="#000000" transform="translate(0,0)"/>
<path d="" fill="#000000" transform="translate(0,0)"/>
<path d="" fill="#000000" transform="translate(0,0)"/>
<path d="" fill="#000000" transform="translate(0,0)"/>
<path d="" fill="#000000" transform="translate(0,0)"/>
<path d="" fill="#000000" transform="translate(0,0)"/>
<path d="" fill="#000000" transform="translate(0,0)"/>
<path d="" fill="#000000" transform="translate(0,0)"/>
</svg>
