<svg xmlns="http://www.w3.org/2000/svg" viewBox="0 0 200 200"><defs><linearGradient id="g" x1="0%" y1="0%" x2="100%" y2="100%"><stop offset="0%" style="stop-color:#7C3AED"/><stop offset="100%" style="stop-color:#10B981"/></linearGradient></defs><circle cx="100" cy="100" r="90" fill="url(#g)"/><path d="M100 35c-8 0-15 3-20 8l-35 40c-3 4-5 8-5 13v20c0 8 6 14 14 14h12v-24c0-5 4-9 9-9h50c5 0 9 4 9 9v24h12c8 0 14-6 14-14v-20c0-5-2-9-5-13l-35-40c-5-5-12-8-20-8z" fill="white"/><rect x="80" y="120" width="40" height="30" rx="4" fill="white" opacity="0.9"/><circle cx="100" cy="75" r="12" fill="url(#g)"/></svg>