<svg width="592" height="128" viewBox="0 0 592 128" fill="none" xmlns="http://www.w3.org/2000/svg">
<path fill-rule="evenodd" clip-rule="evenodd" d="M86.9249 0.275068C87.4452 -0.0252837 88.0863 -0.0252822 88.6067 0.275068L110.749 13.0563C111.269 13.3567 111.59 13.9117 111.59 14.5123V37.1618C111.59 37.7624 111.91 38.3175 112.431 38.6178L132.05 49.943C132.571 50.2433 132.891 50.7983 132.891 51.399V76.3301C132.891 76.9308 132.571 77.4862 132.05 77.7866L112.431 89.1113C111.911 89.4116 111.59 89.9666 111.59 90.5673V113.532C111.59 114.133 111.269 114.688 110.749 114.989L88.6067 127.769C88.0863 128.07 87.4452 128.07 86.9249 127.769L67.2867 116.434C66.7663 116.133 66.1248 116.133 65.6045 116.434L45.9663 127.769C45.4459 128.07 44.8048 128.07 44.2845 127.769L22.142 114.989C21.6217 114.688 21.3011 114.133 21.3011 113.532V90.5673C21.3011 89.9666 20.9806 89.4116 20.4602 89.1113L0.840909 77.7866C0.320562 77.4862 1.24395e-05 76.9308 0 76.3301V51.3986C7.06058e-05 50.798 0.320617 50.2429 0.840909 49.9426L20.4602 38.6178C20.7213 38.4672 20.9325 38.2525 21.0777 38L21.3011 38.1063L41.3409 49.6737C42.4621 50.3208 43.8636 49.512 43.8636 48.2176V46.2759C43.8635 45.6753 43.5433 45.1202 43.0231 44.8198L21.3011 32.2816V14.5123C21.3011 13.9117 21.6218 13.3567 22.142 13.0563L44.2845 0.275068C44.8048 -0.0252821 45.4459 -0.0252836 45.9663 0.275068L65.6045 11.6109C66.1248 11.9112 66.7663 11.9112 67.2867 11.6109L86.9249 0.275068ZM88.6067 6.09978C88.0864 5.79954 87.4456 5.79955 86.9253 6.09978L69.8283 15.9684C69.308 16.2688 68.9874 16.8238 68.9874 17.4245V32.3079C68.9875 33.6022 70.389 34.4111 71.5101 33.764L84.4021 26.3223C84.9225 26.0219 85.243 25.4669 85.2431 24.8662V18.8806C85.2431 18.2799 85.5637 17.7248 86.084 17.4245L87.7658 16.4536C88.887 15.8065 90.2885 16.6158 90.2885 17.9101V27.7784C90.2885 28.3791 89.9679 28.9345 89.4476 29.2348L69.8283 40.5595C69.308 40.8599 68.9874 41.4149 68.9874 42.0156V61.4376C68.9874 62.0383 69.308 62.5934 69.8283 62.8937L86.9253 72.7623C87.4455 73.0625 88.0864 73.0625 88.6067 72.7623L104.442 63.6219C104.962 63.3216 105.603 63.3216 106.124 63.6219L107.806 64.5928C108.927 65.24 108.927 66.8578 107.806 67.5049L88.6067 78.587C88.0863 78.8874 87.4452 78.8874 86.9249 78.587L71.5101 69.6893C70.3889 69.0421 68.9875 69.851 68.9874 71.1453V84.3342C68.9874 84.9349 69.308 85.4899 69.8283 85.7902L89.4476 97.1154C89.9679 97.4157 90.2885 97.9708 90.2885 98.5714V109.773C90.2885 110.373 89.968 110.929 89.4476 111.229L88.6067 111.714C88.0864 112.015 87.4452 112.015 86.9249 111.714L86.084 111.229C85.5636 110.929 85.2431 110.373 85.2431 109.773V101.484C85.2431 100.883 84.9225 100.328 84.4021 100.028L71.5101 92.5858C70.3889 91.9386 68.9874 92.7475 68.9874 94.0419V110.62C68.9874 111.221 69.308 111.776 69.8283 112.076L86.9253 121.945C87.4455 122.245 88.0864 122.245 88.6067 121.945L105.703 112.076C106.224 111.776 106.544 111.221 106.544 110.62V87.6552C106.544 87.0546 106.865 86.4995 107.385 86.1991L127.005 74.874C127.525 74.5736 127.846 74.0186 127.846 73.4179V54.3112C127.846 53.7105 127.525 53.1555 127.005 52.8551L109.908 42.9865C109.388 42.6862 108.747 42.6862 108.226 42.9865L92.3908 52.1269C91.8704 52.4272 91.2293 52.4272 90.709 52.1269L89.0271 51.156C87.906 50.5088 87.906 48.8911 89.0271 48.2439L105.704 38.6178C106.224 38.3175 106.544 37.7624 106.544 37.1618V17.4245C106.544 16.8238 106.224 16.2688 105.703 15.9684L88.6067 6.09978ZM26.0633 62.2484C25.5429 61.948 24.9018 61.948 24.3814 62.2484L22.6992 63.2192C21.5781 63.8664 21.5781 65.4846 22.6992 66.1318L41.7613 77.1347C42.2816 77.435 42.6022 77.9901 42.6022 78.5907V98.3284C42.6023 98.9291 42.9232 99.4842 43.4436 99.7845L44.2845 100.27C44.8048 100.57 45.4456 100.57 45.9659 100.27L46.8068 99.7845C47.3271 99.4842 47.6476 98.9291 47.6477 98.3284V78.5907C47.6478 77.9901 47.9687 77.435 48.489 77.1347L63.0628 68.7225C63.5832 68.4222 63.9037 67.8667 63.9038 67.266V65.3247C63.9038 64.0304 62.5022 63.2211 61.381 63.8682L45.9663 72.766C45.4459 73.0664 44.8048 73.0664 44.2845 72.766L26.0633 62.2484ZM45.1254 16.4577C44.0042 15.8106 42.6023 16.6195 42.6022 17.9138V27.7825C42.6023 28.3831 42.9232 28.9382 43.4436 29.2385L61.381 39.5924C62.5022 40.2396 63.9037 39.4307 63.9038 38.1363V36.1946C63.9037 35.594 63.5831 35.0389 63.0628 34.7385L48.489 26.3264C47.9687 26.026 47.6477 25.4706 47.6477 24.8699V18.8847C47.6477 18.284 47.3274 17.729 46.8072 17.4286L45.1254 16.4577Z" fill="url(#paint0_linear_17_3)"/>
<path fill-rule="evenodd" clip-rule="evenodd" d="M86.9249 0.275068C87.4452 -0.0252837 88.0863 -0.0252822 88.6067 0.275068L110.749 13.0563C111.269 13.3567 111.59 13.9117 111.59 14.5123V37.1618C111.59 37.7624 111.91 38.3175 112.431 38.6178L132.05 49.943C132.571 50.2433 132.891 50.7983 132.891 51.399V76.3301C132.891 76.9308 132.571 77.4862 132.05 77.7866L112.431 89.1113C111.911 89.4116 111.59 89.9666 111.59 90.5673V113.532C111.59 114.133 111.269 114.688 110.749 114.989L88.6067 127.769C88.0863 128.07 87.4452 128.07 86.9249 127.769L67.2867 116.434C66.7663 116.133 66.1248 116.133 65.6045 116.434L45.9663 127.769C45.4459 128.07 44.8048 128.07 44.2845 127.769L22.142 114.989C21.6217 114.688 21.3011 114.133 21.3011 113.532V90.5673C21.3011 89.9666 20.9806 89.4116 20.4602 89.1113L0.840909 77.7866C0.320562 77.4862 1.24395e-05 76.9308 0 76.3301V51.3986C7.06058e-05 50.798 0.320617 50.2429 0.840909 49.9426L20.4602 38.6178C20.7213 38.4672 20.9325 38.2525 21.0777 38L21.3011 38.1063L41.3409 49.6737C42.4621 50.3208 43.8636 49.512 43.8636 48.2176V46.2759C43.8635 45.6753 43.5433 45.1202 43.0231 44.8198L21.3011 32.2816V14.5123C21.3011 13.9117 21.6218 13.3567 22.142 13.0563L44.2845 0.275068C44.8048 -0.0252821 45.4459 -0.0252836 45.9663 0.275068L65.6045 11.6109C66.1248 11.9112 66.7663 11.9112 67.2867 11.6109L86.9249 0.275068ZM88.6067 6.09978C88.0864 5.79954 87.4456 5.79955 86.9253 6.09978L69.8283 15.9684C69.308 16.2688 68.9874 16.8238 68.9874 17.4245V32.3079C68.9875 33.6022 70.389 34.4111 71.5101 33.764L84.4021 26.3223C84.9225 26.0219 85.243 25.4669 85.2431 24.8662V18.8806C85.2431 18.2799 85.5637 17.7248 86.084 17.4245L87.7658 16.4536C88.887 15.8065 90.2885 16.6158 90.2885 17.9101V27.7784C90.2885 28.3791 89.9679 28.9345 89.4476 29.2348L69.8283 40.5595C69.308 40.8599 68.9874 41.4149 68.9874 42.0156V61.4376C68.9874 62.0383 69.308 62.5934 69.8283 62.8937L86.9253 72.7623C87.4455 73.0625 88.0864 73.0625 88.6067 72.7623L104.442 63.6219C104.962 63.3216 105.603 63.3216 106.124 63.6219L107.806 64.5928C108.927 65.24 108.927 66.8578 107.806 67.5049L88.6067 78.587C88.0863 78.8874 87.4452 78.8874 86.9249 78.587L71.5101 69.6893C70.3889 69.0421 68.9875 69.851 68.9874 71.1453V84.3342C68.9874 84.9349 69.308 85.4899 69.8283 85.7902L89.4476 97.1154C89.9679 97.4157 90.2885 97.9708 90.2885 98.5714V109.773C90.2885 110.373 89.968 110.929 89.4476 111.229L88.6067 111.714C88.0864 112.015 87.4452 112.015 86.9249 111.714L86.084 111.229C85.5636 110.929 85.2431 110.373 85.2431 109.773V101.484C85.2431 100.883 84.9225 100.328 84.4021 100.028L71.5101 92.5858C70.3889 91.9386 68.9874 92.7475 68.9874 94.0419V110.62C68.9874 111.221 69.308 111.776 69.8283 112.076L86.9253 121.945C87.4455 122.245 88.0864 122.245 88.6067 121.945L105.703 112.076C106.224 111.776 106.544 111.221 106.544 110.62V87.6552C106.544 87.0546 106.865 86.4995 107.385 86.1991L127.005 74.874C127.525 74.5736 127.846 74.0186 127.846 73.4179V54.3112C127.846 53.7105 127.525 53.1555 127.005 52.8551L109.908 42.9865C109.388 42.6862 108.747 42.6862 108.226 42.9865L92.3908 52.1269C91.8704 52.4272 91.2293 52.4272 90.709 52.1269L89.0271 51.156C87.906 50.5088 87.906 48.8911 89.0271 48.2439L105.704 38.6178C106.224 38.3175 106.544 37.7624 106.544 37.1618V17.4245C106.544 16.8238 106.224 16.2688 105.703 15.9684L88.6067 6.09978ZM26.0633 62.2484C25.5429 61.948 24.9018 61.948 24.3814 62.2484L22.6992 63.2192C21.5781 63.8664 21.5781 65.4846 22.6992 66.1318L41.7613 77.1347C42.2816 77.435 42.6022 77.9901 42.6022 78.5907V98.3284C42.6023 98.9291 42.9232 99.4842 43.4436 99.7845L44.2845 100.27C44.8048 100.57 45.4456 100.57 45.9659 100.27L46.8068 99.7845C47.3271 99.4842 47.6476 98.9291 47.6477 98.3284V78.5907C47.6478 77.9901 47.9687 77.435 48.489 77.1347L63.0628 68.7225C63.5832 68.4222 63.9037 67.8667 63.9038 67.266V65.3247C63.9038 64.0304 62.5022 63.2211 61.381 63.8682L45.9663 72.766C45.4459 73.0664 44.8048 73.0664 44.2845 72.766L26.0633 62.2484ZM45.1254 16.4577C44.0042 15.8106 42.6023 16.6195 42.6022 17.9138V27.7825C42.6023 28.3831 42.9232 28.9382 43.4436 29.2385L61.381 39.5924C62.5022 40.2396 63.9037 39.4307 63.9038 38.1363V36.1946C63.9037 35.594 63.5831 35.0389 63.0628 34.7385L48.489 26.3264C47.9687 26.026 47.6477 25.4706 47.6477 24.8699V18.8847C47.6477 18.284 47.3274 17.729 46.8072 17.4286L45.1254 16.4577Z" fill="white"/>
<path d="M223.199 96.1146C222.561 96.1943 221.445 96.1943 221.125 96.1943C216.02 96.1943 212.83 94.8383 207.804 91.4083C203.656 94.2799 197.435 96.0348 191.452 96.0348C173.664 96.0348 159.545 82.4744 159.545 65.4841C159.545 48.3342 173.265 35.0132 190.974 35.0132C208.841 35.0132 222.162 48.1747 222.162 65.8032C222.162 73.6203 219.849 79.7624 215.063 84.7079C217.536 85.9842 218.573 86.4628 220.487 86.4628C221.046 86.4628 222.083 86.383 223.199 86.2235V96.1146ZM198.551 83.99C191.771 78.5659 186.108 76.2526 179.647 76.2526C177.732 76.2526 176.536 76.4122 173.983 76.8908C178.45 82.7935 184.034 85.5056 191.452 85.5056C194.404 85.5056 196.079 85.1068 198.551 83.99ZM211.155 65.9627C211.155 54.237 202.46 45.5424 190.814 45.5424C179.248 45.5424 170.473 54.1572 170.473 65.5639C170.473 66.2818 170.473 66.9199 170.633 68.3557C173.345 67.6378 176.217 67.3187 179.726 67.3187C189.139 67.3187 199.19 71.6261 206.369 78.7254C209.559 75.455 211.155 71.3071 211.155 65.9627Z" fill="white"/>
<path d="M267.777 94.9978H257.965V90.7702C253.977 94.6788 250.627 96.0348 245.282 96.0348C234.992 96.0348 228.452 90.0523 228.452 74.4978V50.807H239.061V72.4238C239.061 84.1495 242.331 86.3033 247.436 86.3033C251.026 86.3033 253.897 84.7877 255.492 82.2351C256.689 80.241 257.168 77.5289 257.168 71.6261V50.807H267.777V94.9978Z" fill="white"/>
<path d="M286.889 94.9978H276.28V50.807H286.889V94.9978ZM286.969 44.4256H276.36V33.8167H286.969V44.4256Z" fill="white"/>
<path d="M339.076 80.4803C335.406 90.3714 327.43 96.0348 317.14 96.0348C304.058 96.0348 293.529 85.7449 293.529 72.9024C293.529 59.9004 303.739 49.77 316.821 49.77C326.871 49.77 335.646 55.4335 339.076 65.5639H327.111C324.957 61.4958 321.607 59.5016 316.821 59.5016C309.482 59.5016 304.218 65.0853 304.218 72.8227C304.218 80.56 309.721 86.3033 317.06 86.3033C321.447 86.3033 324.478 84.5484 327.111 80.4803H339.076Z" fill="white"/>
<path d="M386.429 94.9978H372.151L357.075 74.3382V94.9978H346.466V36.0501H357.075V71.6261L371.194 50.807H383.877L368.083 72.4238L386.429 94.9978Z" fill="white"/>
<path d="M427.755 77.1301C427.755 87.8188 419.539 96.0348 408.93 96.0348C398.56 96.0348 390.504 89.3344 389.546 78.167H400.953C401.432 83.1126 404.064 85.5056 408.93 85.5056C413.636 85.5056 416.906 82.5542 416.906 78.3266C416.906 75.9336 415.949 73.7001 414.194 72.344C412.439 70.988 411.801 70.7487 403.984 67.7973C396.087 64.846 391.7 59.1825 391.7 51.7642C391.7 42.4315 399.358 35.0132 408.85 35.0132C418.342 35.0132 425.76 41.3945 426.319 51.7642H414.992C414.673 47.7759 412.439 45.5424 408.77 45.5424C405.181 45.5424 402.708 48.0152 402.708 51.5249C402.708 53.6786 403.825 55.5132 405.978 56.8693C406.776 57.3479 406.935 57.4276 412.519 59.5016C424.484 63.9685 427.755 69.1534 427.755 77.1301Z" fill="white"/>
<path d="M444.787 94.9978H434.178V50.807H444.787V94.9978ZM444.867 44.4256H434.258V33.8167H444.867V44.4256Z" fill="white"/>
<path d="M463.95 94.9978H453.341V36.0501H463.95V94.9978Z" fill="white"/>
<path d="M512.308 50.807L494.52 94.9978H486.064L468.276 50.807H480.082L490.292 80.0814L500.342 50.807H512.308Z" fill="white"/>
<path d="M558.915 73.5406C558.915 75.1359 558.835 76.0931 558.516 77.6087H524.296C525.573 82.953 530.199 86.3033 536.501 86.3033C540.888 86.3033 543.52 85.1068 546.232 81.9161H557.798C554.847 91.0095 545.674 96.0348 536.74 96.0348C523.259 96.0348 512.81 85.9842 512.81 73.062C512.81 60.0599 523.1 49.77 536.102 49.77C549.263 49.77 558.915 59.8207 558.915 73.5406ZM548.466 68.2759C547.11 62.6125 542.802 59.5016 536.261 59.5016C529.96 59.5016 525.652 62.6125 523.977 68.2759H548.466Z" fill="white"/>
<path d="M585.848 59.9802C579.467 60.1397 576.356 63.5697 576.356 70.4296V94.9978H565.747V50.807H575.479V55.1144C578.27 51.0463 580.504 49.77 585.051 49.77H585.848V59.9802Z" fill="white"/>
<defs>
<linearGradient id="paint0_linear_17_3" x1="375.709" y1="6.72571" x2="375.709" y2="121.484" gradientUnits="userSpaceOnUse">
<stop stop-color="white"/>
<stop offset="1" stop-color="white" stop-opacity="0.6"/>
</linearGradient>
</defs>
</svg>
