<svg xmlns="http://www.w3.org/2000/svg" viewBox="0 0 800 800" width="800" height="800">
  <defs>
    <radialGradient id="divineGlow" cx="50%" cy="42%" r="45%" fx="50%" fy="40%">
      <stop offset="0%" style="stop-color:#E8D5B7;stop-opacity:0.35"/>
      <stop offset="40%" style="stop-color:#1a1a2e;stop-opacity:0.1"/>
      <stop offset="100%" style="stop-color:#0a0a1a;stop-opacity:0"/>
    </radialGradient>
    <linearGradient id="shieldGrad" x1="0%" y1="0%" x2="0%" y2="100%">
      <stop offset="0%" style="stop-color:#1a1a3e"/>
      <stop offset="50%" style="stop-color:#0f0f2a"/>
      <stop offset="100%" style="stop-color:#080818"/>
    </linearGradient>
    <linearGradient id="goldGrad" x1="0%" y1="0%" x2="100%" y2="100%">
      <stop offset="0%" style="stop-color:#D4A853"/>
      <stop offset="30%" style="stop-color:#E8C876"/>
      <stop offset="50%" style="stop-color:#F0D68A"/>
      <stop offset="70%" style="stop-color:#E8C876"/>
      <stop offset="100%" style="stop-color:#C49A3C"/>
    </linearGradient>
    <linearGradient id="goldThin" x1="0%" y1="0%" x2="0%" y2="100%">
      <stop offset="0%" style="stop-color:#E8C876;stop-opacity:0.8"/>
      <stop offset="100%" style="stop-color:#C49A3C;stop-opacity:0.5"/>
    </linearGradient>
    <radialGradient id="eyeGlow" cx="50%" cy="50%" r="50%">
      <stop offset="0%" style="stop-color:#F0D68A;stop-opacity:0.9"/>
      <stop offset="50%" style="stop-color:#D4A853;stop-opacity:0.4"/>
      <stop offset="100%" style="stop-color:#C49A3C;stop-opacity:0"/>
    </radialGradient>
    <filter id="softGlow" x="-20%" y="-20%" width="140%" height="140%">
      <feGaussianBlur stdDeviation="3" result="blur"/>
      <feMerge><feMergeNode in="blur"/><feMergeNode in="SourceGraphic"/></feMerge>
    </filter>
    <filter id="strongGlow" x="-30%" y="-30%" width="160%" height="160%">
      <feGaussianBlur stdDeviation="8" result="blur"/>
      <feMerge><feMergeNode in="blur"/><feMergeNode in="SourceGraphic"/></feMerge>
    </filter>
    <clipPath id="shieldClip">
      <path d="M400 120 L560 195 L560 420 Q560 540 400 640 Q240 540 240 420 L240 195 Z"/>
    </clipPath>
  </defs>
  <rect width="800" height="800" fill="#0a0a1a"/>
  <ellipse cx="400" cy="350" rx="350" ry="300" fill="url(#divineGlow)"/>
  <circle cx="400" cy="390" r="280" fill="none" stroke="url(#goldThin)" stroke-width="0.5" opacity="0.25"/>
  <circle cx="400" cy="110" r="2" fill="#D4A853" opacity="0.5"/>
  <circle cx="680" cy="390" r="2" fill="#D4A853" opacity="0.5"/>
  <circle cx="400" cy="670" r="2" fill="#D4A853" opacity="0.5"/>
  <circle cx="120" cy="390" r="2" fill="#D4A853" opacity="0.5"/>
  <path d="M400 110 L570 190 L570 425 Q570 555 400 655 Q230 555 230 425 L230 190 Z" fill="none" stroke="url(#goldGrad)" stroke-width="2.5" filter="url(#softGlow)"/>
  <path d="M400 120 L560 195 L560 420 Q560 540 400 640 Q240 540 240 420 L240 195 Z" fill="url(#shieldGrad)"/>
  <path d="M400 145 L540 210 L540 415 Q540 520 400 610 Q260 520 260 415 L260 210 Z" fill="none" stroke="url(#goldThin)" stroke-width="0.8" opacity="0.5"/>
  <ellipse cx="400" cy="340" rx="90" ry="90" fill="url(#eyeGlow)" opacity="0.15" filter="url(#strongGlow)"/>
  <path d="M295 340 Q400 265 505 340 Q400 415 295 340 Z" fill="none" stroke="url(#goldGrad)" stroke-width="2" filter="url(#softGlow)"/>
  <circle cx="400" cy="340" r="38" fill="none" stroke="url(#goldGrad)" stroke-width="1.8"/>
  <circle cx="400" cy="340" r="16" fill="#D4A853" opacity="0.8"/>
  <circle cx="400" cy="340" r="8" fill="#F0D68A"/>
  <circle cx="400" cy="340" r="3" fill="#FFFDE8"/>
  <g opacity="0.3" stroke="#D4A853" stroke-width="0.5">
    <line x1="400" y1="302" x2="400" y2="314"/>
    <line x1="400" y1="366" x2="400" y2="378"/>
    <line x1="362" y1="340" x2="374" y2="340"/>
    <line x1="426" y1="340" x2="438" y2="340"/>
    <line x1="374" y1="314" x2="381" y2="322"/>
    <line x1="419" y1="358" x2="426" y2="366"/>
    <line x1="374" y1="366" x2="381" y2="358"/>
    <line x1="419" y1="322" x2="426" y2="314"/>
  </g>
  <g opacity="0.12" stroke="#E8C876" stroke-width="0.8">
    <line x1="400" y1="250" x2="400" y2="170"/>
    <line x1="340" y1="270" x2="290" y2="210"/>
    <line x1="460" y1="270" x2="510" y2="210"/>
    <line x1="290" y1="320" x2="255" y2="300"/>
    <line x1="510" y1="320" x2="545" y2="300"/>
    <line x1="290" y1="360" x2="255" y2="380"/>
    <line x1="510" y1="360" x2="545" y2="380"/>
  </g>
  <path d="M400 215 L490 430 L310 430 Z" fill="none" stroke="url(#goldThin)" stroke-width="0.7" opacity="0.3"/>
  <path d="M400 465 L310 250 L490 250 Z" fill="none" stroke="url(#goldThin)" stroke-width="0.5" opacity="0.15"/>
  <line x1="270" y1="340" x2="530" y2="340" stroke="url(#goldThin)" stroke-width="0.5" opacity="0.2"/>
  <path d="M270 220 L280 230 L270 240" fill="none" stroke="#D4A853" stroke-width="1" opacity="0.4"/>
  <path d="M530 220 L520 230 L530 240" fill="none" stroke="#D4A853" stroke-width="1" opacity="0.4"/>
  <path d="M385 590 L400 610 L415 590" fill="none" stroke="#D4A853" stroke-width="0.8" opacity="0.4"/>
  <text x="400" y="720" text-anchor="middle" font-family="Georgia, 'Times New Roman', serif" font-size="42" font-weight="400" letter-spacing="18" fill="url(#goldGrad)" filter="url(#softGlow)">SENTINEL</text>
  <text x="400" y="752" text-anchor="middle" font-family="Georgia, 'Times New Roman', serif" font-size="11" letter-spacing="6" fill="#D4A853" opacity="0.45">AML/CFT INTELLIGENCE</text>
  <line x1="310" y1="730" x2="490" y2="730" stroke="#D4A853" stroke-width="0.5" opacity="0.25"/>
  <polygon points="295,748 298,752 295,756 292,752" fill="#D4A853" opacity="0.3"/>
  <polygon points="505,748 508,752 505,756 502,752" fill="#D4A853" opacity="0.3"/>
</svg>
