<svg width="273" height="273" viewBox="0 0 273 273" fill="none" xmlns="http://www.w3.org/2000/svg">
<rect width="273" height="273" fill="url(#paint0_linear_205_44)"/>
<path fill-rule="evenodd" clip-rule="evenodd" d="M154.103 83.7216C153.736 83.0903 153.788 82.3012 154.209 81.6699L171.759 55.6298C172.232 54.8933 172.284 53.999 171.864 53.2625C171.443 52.4735 170.655 52.0526 169.814 52.0526H162.984C162.248 52.0526 161.512 52.4208 161.039 53.1047L140.547 83.6164C140.021 84.4054 139.181 84.8263 138.235 84.8263H135.66C134.714 84.8263 133.874 84.3528 133.348 83.6164L112.961 53.0521C112.54 52.3682 111.752 52 111.016 52H104.186C103.345 52 102.504 52.4735 102.136 53.2625C101.716 54.0516 101.821 54.9459 102.241 55.6298L119.791 81.7225C120.212 82.3012 120.264 83.0903 119.897 83.7216C119.529 84.4054 118.898 84.7737 118.163 84.7737H91.312C89.9984 84.7737 89 85.8258 89 87.0884V92.7698C89 94.085 90.0509 95.0845 91.312 95.0845H182.688C184.002 95.0845 185 94.0324 185 92.7698V87.0884C185 85.8784 184.107 84.9315 182.951 84.7737C182.846 84.7737 182.741 84.7737 182.635 84.7737H155.837C155.102 84.7737 154.419 84.4054 154.103 83.7216ZM133.401 117.232L112.908 147.743C112.488 148.427 111.7 148.795 110.964 148.795H104.133C103.292 148.795 102.504 148.322 102.084 147.586C101.663 146.849 101.716 145.902 102.189 145.218L119.686 119.178C120.107 118.547 120.159 117.81 119.791 117.127C119.424 116.495 118.793 116.074 118.057 116.074H91.312C90.0509 116.074 89 115.075 89 113.76V108.078C89 106.816 89.9984 105.764 91.312 105.764H182.478C182.478 105.764 182.635 105.764 182.688 105.764C183.949 105.764 185 106.763 185 108.078V113.76C185 115.022 184.002 116.074 182.688 116.074H155.89C155.102 116.074 154.471 116.443 154.156 117.127C153.788 117.81 153.841 118.547 154.261 119.126L171.811 145.218C172.232 145.902 172.337 146.796 171.916 147.586C171.496 148.375 170.708 148.848 169.867 148.848H163.036C162.248 148.848 161.565 148.48 161.144 147.849L140.652 117.337C140.126 116.548 139.286 116.127 138.34 116.127H135.765C134.819 116.127 133.979 116.6 133.453 117.337L133.401 117.232Z" fill="white"/>
<path d="M77.9723 212.922V205.414L96.7969 175.757H103.27V186.149H99.4389L87.5717 204.93V205.282H114.322V212.922H77.9723ZM99.6151 220.848V210.632L99.7912 207.308V175.757H108.73V220.848H99.6151ZM138.354 221.839C134.567 221.824 131.309 220.892 128.578 219.043C125.863 217.193 123.771 214.515 122.304 211.007C120.85 207.498 120.131 203.279 120.146 198.347C120.146 193.43 120.873 189.239 122.326 185.775C123.793 182.311 125.885 179.676 128.6 177.871C131.331 176.051 134.582 175.141 138.354 175.141C142.126 175.141 145.37 176.051 148.086 177.871C150.816 179.691 152.915 182.333 154.382 185.797C155.85 189.246 156.577 193.43 156.562 198.347C156.562 203.293 155.828 207.52 154.36 211.029C152.907 214.537 150.823 217.215 148.108 219.065C145.392 220.914 142.141 221.839 138.354 221.839ZM138.354 213.935C140.937 213.935 143 212.636 144.541 210.038C146.082 207.44 146.845 203.543 146.831 198.347C146.831 194.927 146.478 192.079 145.774 189.804C145.084 187.529 144.1 185.819 142.824 184.674C141.561 183.529 140.071 182.957 138.354 182.957C135.785 182.957 133.73 184.241 132.189 186.81C130.648 189.378 129.87 193.224 129.855 198.347C129.855 201.811 130.2 204.702 130.89 207.021C131.595 209.326 132.586 211.058 133.863 212.217C135.14 213.362 136.637 213.935 138.354 213.935ZM163.36 220.848V213.979L179.41 199.117C180.775 197.796 181.92 196.607 182.845 195.551C183.784 194.494 184.496 193.459 184.981 192.446C185.465 191.419 185.707 190.311 185.707 189.122C185.707 187.801 185.406 186.663 184.805 185.709C184.203 184.74 183.381 183.999 182.339 183.485C181.296 182.957 180.115 182.693 178.794 182.693C177.414 182.693 176.211 182.971 175.183 183.529C174.156 184.087 173.363 184.887 172.805 185.929C172.247 186.971 171.969 188.212 171.969 189.65H162.92C162.92 186.7 163.587 184.138 164.923 181.966C166.259 179.794 168.13 178.113 170.537 176.924C172.945 175.735 175.719 175.141 178.86 175.141C182.089 175.141 184.9 175.713 187.292 176.858C189.7 177.988 191.571 179.559 192.907 181.57C194.242 183.581 194.91 185.885 194.91 188.483C194.91 190.186 194.573 191.866 193.898 193.525C193.237 195.184 192.055 197.026 190.353 199.051C188.65 201.062 186.25 203.477 183.153 206.295L176.57 212.746V213.054H195.505V220.848H163.36Z" fill="white"/>
<defs>
<linearGradient id="paint0_linear_205_44" x1="273" y1="273" x2="8.99999" y2="7.99999" gradientUnits="userSpaceOnUse">
<stop offset="1" stop-color="#FC6432"/>
</linearGradient>
</defs>
</svg>
