<svg width="291" height="634" viewBox="0 0 291 634" fill="none" xmlns="http://www.w3.org/2000/svg">
<path d="M35 1H256C274.778 1 290 16.2223 290 35V599C290 617.778 274.778 633 256 633H35C16.2223 633 1 617.778 1 599V35C1 16.2223 16.2223 1 35 1Z" fill="white"/>
<path d="M35 1H256C274.778 1 290 16.2223 290 35V599C290 617.778 274.778 633 256 633H35C16.2223 633 1 617.778 1 599V35C1 16.2223 16.2223 1 35 1Z" stroke="black" stroke-width="2"/>
<path d="M21.1581 521.213L15.3835 526.987V528.27L21.1581 534.044L19.6462 535.556L13.2454 529.155V526.102L19.6462 519.701L21.1581 521.213Z" fill="black"/>
<path d="M30.8419 534.074L36.6165 528.299L36.6165 527.017L30.8419 521.242L32.3538 519.73L38.7546 526.131L38.7546 529.185L32.3538 535.586L30.8419 534.074Z" fill="black"/>
<rect x="22.0355" y="526.59" width="2.13812" height="2.13812" fill="black"/>
<rect x="27.7968" y="526.59" width="2.13812" height="2.13812" fill="black"/>
<path d="M118.314 487H60.988L49 494.789V542.643L60.988 530.655H118.314L126.103 522.867V494.789L118.314 487Z" fill="black"/>
<path d="M56.112 506.32H64.204V507.832H61.026V516.316H59.276V507.832H56.112V506.32ZM63.8537 509.078H65.3517V510.478H65.3797C65.4263 510.282 65.515 510.091 65.6457 509.904C65.7857 509.717 65.949 509.549 66.1357 509.4C66.3317 509.241 66.5463 509.115 66.7797 509.022C67.013 508.929 67.251 508.882 67.4937 508.882C67.6803 508.882 67.8063 508.887 67.8717 508.896C67.9463 508.905 68.021 508.915 68.0957 508.924V510.464C67.9837 510.445 67.867 510.431 67.7457 510.422C67.6337 510.403 67.5217 510.394 67.4097 510.394C67.139 510.394 66.8823 510.45 66.6397 510.562C66.4063 510.665 66.201 510.823 66.0237 511.038C65.8463 511.243 65.7063 511.5 65.6037 511.808C65.501 512.116 65.4497 512.471 65.4497 512.872V516.316H63.8537V509.078ZM67.9775 509.078H69.7275L71.6175 514.482H71.6455L73.4795 509.078H75.1455L72.3315 516.708C72.2009 517.035 72.0702 517.347 71.9395 517.646C71.8182 517.945 71.6642 518.206 71.4775 518.43C71.3002 518.663 71.0762 518.845 70.8055 518.976C70.5349 519.116 70.1895 519.186 69.7695 519.186C69.3962 519.186 69.0275 519.158 68.6635 519.102V517.758C68.7942 517.777 68.9202 517.795 69.0415 517.814C69.1629 517.842 69.2889 517.856 69.4195 517.856C69.6062 517.856 69.7602 517.833 69.8815 517.786C70.0029 517.739 70.1009 517.669 70.1755 517.576C70.2595 517.492 70.3295 517.389 70.3855 517.268C70.4415 517.147 70.4929 517.007 70.5395 516.848L70.7215 516.288L67.9775 509.078ZM79.9738 506.32H81.5698V507.832H79.9738V506.32ZM79.9738 509.078H81.5698V516.316H79.9738V509.078ZM82.5808 509.078H83.7848V506.908H85.3808V509.078H86.8228V510.268H85.3808V514.132C85.3808 514.3 85.3854 514.445 85.3948 514.566C85.4134 514.687 85.4461 514.79 85.4928 514.874C85.5488 514.958 85.6281 515.023 85.7308 515.07C85.8334 515.107 85.9734 515.126 86.1508 515.126C86.2628 515.126 86.3748 515.126 86.4868 515.126C86.5988 515.117 86.7108 515.098 86.8228 515.07V516.302C86.6454 516.321 86.4728 516.339 86.3048 516.358C86.1368 516.377 85.9641 516.386 85.7868 516.386C85.3668 516.386 85.0261 516.349 84.7648 516.274C84.5128 516.19 84.3121 516.073 84.1628 515.924C84.0228 515.765 83.9248 515.569 83.8688 515.336C83.8221 515.103 83.7941 514.837 83.7848 514.538V510.268H82.5808V509.078ZM91.8673 506.32H93.4633V510.03H93.4913C93.6873 509.703 93.9767 509.433 94.3593 509.218C94.7513 508.994 95.1853 508.882 95.6613 508.882C96.4547 508.882 97.08 509.087 97.5373 509.498C97.9947 509.909 98.2233 510.525 98.2233 511.346V516.316H96.6273V511.766C96.6087 511.197 96.4873 510.786 96.2633 510.534C96.0393 510.273 95.6893 510.142 95.2133 510.142C94.9427 510.142 94.7 510.193 94.4853 510.296C94.2707 510.389 94.0887 510.525 93.9393 510.702C93.79 510.87 93.6733 511.071 93.5893 511.304C93.5053 511.537 93.4633 511.785 93.4633 512.046V516.316H91.8673V506.32ZM104.876 512.06C104.858 511.808 104.802 511.565 104.708 511.332C104.624 511.099 104.503 510.898 104.344 510.73C104.195 510.553 104.008 510.413 103.784 510.31C103.57 510.198 103.327 510.142 103.056 510.142C102.776 510.142 102.52 510.193 102.286 510.296C102.062 510.389 101.866 510.525 101.698 510.702C101.54 510.87 101.409 511.071 101.306 511.304C101.213 511.537 101.162 511.789 101.152 512.06H104.876ZM101.152 513.11C101.152 513.39 101.19 513.661 101.264 513.922C101.348 514.183 101.47 514.412 101.628 514.608C101.787 514.804 101.988 514.963 102.23 515.084C102.473 515.196 102.762 515.252 103.098 515.252C103.565 515.252 103.938 515.154 104.218 514.958C104.508 514.753 104.722 514.449 104.862 514.048H106.374C106.29 514.44 106.146 514.79 105.94 515.098C105.735 515.406 105.488 515.667 105.198 515.882C104.909 516.087 104.582 516.241 104.218 516.344C103.864 516.456 103.49 516.512 103.098 516.512C102.529 516.512 102.025 516.419 101.586 516.232C101.148 516.045 100.774 515.784 100.466 515.448C100.168 515.112 99.9391 514.711 99.7804 514.244C99.6311 513.777 99.5564 513.264 99.5564 512.704C99.5564 512.191 99.6357 511.705 99.7944 511.248C99.9624 510.781 100.196 510.375 100.494 510.03C100.802 509.675 101.171 509.395 101.6 509.19C102.03 508.985 102.515 508.882 103.056 508.882C103.626 508.882 104.134 509.003 104.582 509.246C105.04 509.479 105.418 509.792 105.716 510.184C106.015 510.576 106.23 511.029 106.36 511.542C106.5 512.046 106.538 512.569 106.472 513.11H101.152ZM107.686 509.078H109.184V510.478H109.212C109.258 510.282 109.347 510.091 109.478 509.904C109.618 509.717 109.781 509.549 109.968 509.4C110.164 509.241 110.378 509.115 110.612 509.022C110.845 508.929 111.083 508.882 111.326 508.882C111.512 508.882 111.638 508.887 111.704 508.896C111.778 508.905 111.853 508.915 111.928 508.924V510.464C111.816 510.445 111.699 510.431 111.578 510.422C111.466 510.403 111.354 510.394 111.242 510.394C110.971 510.394 110.714 510.45 110.472 510.562C110.238 510.665 110.033 510.823 109.856 511.038C109.678 511.243 109.538 511.5 109.436 511.808C109.333 512.116 109.282 512.471 109.282 512.872V516.316H107.686V509.078ZM117.331 512.06C117.313 511.808 117.257 511.565 117.163 511.332C117.079 511.099 116.958 510.898 116.799 510.73C116.65 510.553 116.463 510.413 116.239 510.31C116.025 510.198 115.782 510.142 115.511 510.142C115.231 510.142 114.975 510.193 114.741 510.296C114.517 510.389 114.321 510.525 114.153 510.702C113.995 510.87 113.864 511.071 113.761 511.304C113.668 511.537 113.617 511.789 113.607 512.06H117.331ZM113.607 513.11C113.607 513.39 113.645 513.661 113.719 513.922C113.803 514.183 113.925 514.412 114.083 514.608C114.242 514.804 114.443 514.963 114.685 515.084C114.928 515.196 115.217 515.252 115.553 515.252C116.02 515.252 116.393 515.154 116.673 514.958C116.963 514.753 117.177 514.449 117.317 514.048H118.829C118.745 514.44 118.601 514.79 118.395 515.098C118.19 515.406 117.943 515.667 117.653 515.882C117.364 516.087 117.037 516.241 116.673 516.344C116.319 516.456 115.945 516.512 115.553 516.512C114.984 516.512 114.48 516.419 114.041 516.232C113.603 516.045 113.229 515.784 112.921 515.448C112.623 515.112 112.394 514.711 112.235 514.244C112.086 513.777 112.011 513.264 112.011 512.704C112.011 512.191 112.091 511.705 112.249 511.248C112.417 510.781 112.651 510.375 112.949 510.03C113.257 509.675 113.626 509.395 114.055 509.19C114.485 508.985 114.97 508.882 115.511 508.882C116.081 508.882 116.589 509.003 117.037 509.246C117.495 509.479 117.873 509.792 118.171 510.184C118.47 510.576 118.685 511.029 118.815 511.542C118.955 512.046 118.993 512.569 118.927 513.11H113.607Z" fill="white"/>
<rect x="9.5" y="578.5" width="272" height="44" rx="22" fill="white"/>
<rect x="9.5" y="578.5" width="272" height="44" rx="22" stroke="black"/>
<path d="M30.058 606.198C29.446 606.198 28.87 606.084 28.33 605.856C27.802 605.628 27.334 605.28 26.926 604.812C26.518 604.344 26.194 603.75 25.954 603.03C25.726 602.31 25.612 601.452 25.612 600.456C25.612 599.58 25.696 598.818 25.864 598.17C26.044 597.51 26.284 596.958 26.584 596.514C26.884 596.058 27.226 595.698 27.61 595.434C27.994 595.158 28.396 594.96 28.816 594.84C29.236 594.708 29.656 594.642 30.076 594.642C30.916 594.642 31.63 594.84 32.218 595.236C32.818 595.62 33.268 596.154 33.568 596.838L32.362 597.648L32.218 597.738L32.128 597.612C32.152 597.516 32.146 597.426 32.11 597.342C32.086 597.246 32.02 597.12 31.912 596.964C31.648 596.616 31.366 596.382 31.066 596.262C30.766 596.142 30.46 596.082 30.148 596.082C29.764 596.082 29.398 596.178 29.05 596.37C28.714 596.55 28.42 596.82 28.168 597.18C27.916 597.54 27.718 597.99 27.574 598.53C27.43 599.058 27.358 599.67 27.358 600.366C27.358 601.038 27.424 601.644 27.556 602.184C27.7 602.712 27.892 603.168 28.132 603.552C28.384 603.924 28.672 604.212 28.996 604.416C29.332 604.608 29.692 604.704 30.076 604.704C30.376 604.704 30.652 604.662 30.904 604.578C31.156 604.494 31.39 604.356 31.606 604.164C31.822 603.96 32.014 603.72 32.182 603.444L33.442 604.326C33.046 604.986 32.572 605.466 32.02 605.766C31.468 606.054 30.814 606.198 30.058 606.198ZM38.14 606.18C37.384 606.18 36.712 606 36.124 605.64C35.536 605.268 35.068 604.758 34.72 604.11C34.372 603.45 34.198 602.694 34.198 601.842C34.198 601.002 34.372 600.258 34.72 599.61C35.068 598.95 35.536 598.434 36.124 598.062C36.712 597.678 37.384 597.486 38.14 597.486C38.884 597.486 39.55 597.678 40.138 598.062C40.738 598.434 41.212 598.95 41.56 599.61C41.908 600.258 42.082 601.002 42.082 601.842C42.082 602.682 41.908 603.432 41.56 604.092C41.212 604.74 40.738 605.25 40.138 605.622C39.55 605.994 38.884 606.18 38.14 606.18ZM38.14 604.722C38.548 604.722 38.908 604.602 39.22 604.362C39.544 604.11 39.796 603.768 39.976 603.336C40.156 602.904 40.246 602.4 40.246 601.824C40.246 601.236 40.156 600.726 39.976 600.294C39.796 599.862 39.544 599.526 39.22 599.286C38.908 599.046 38.548 598.926 38.14 598.926C37.732 598.926 37.366 599.046 37.042 599.286C36.73 599.526 36.484 599.862 36.304 600.294C36.124 600.726 36.034 601.236 36.034 601.824C36.034 602.4 36.124 602.904 36.304 603.336C36.484 603.768 36.73 604.11 37.042 604.362C37.366 604.602 37.732 604.722 38.14 604.722ZM43.36 606V597.666H45.16V598.944C45.364 598.644 45.592 598.386 45.844 598.17C46.096 597.954 46.378 597.786 46.69 597.666C47.002 597.534 47.338 597.468 47.698 597.468C48.166 597.468 48.598 597.588 48.994 597.828C49.39 598.068 49.708 598.446 49.948 598.962C50.188 599.466 50.308 600.138 50.308 600.978V606H48.526V600.996C48.526 600.504 48.472 600.102 48.364 599.79C48.256 599.478 48.1 599.25 47.896 599.106C47.704 598.962 47.47 598.89 47.194 598.89C46.954 598.89 46.714 598.944 46.474 599.052C46.234 599.16 46.012 599.31 45.808 599.502C45.616 599.682 45.46 599.91 45.34 600.186C45.22 600.45 45.16 600.75 45.16 601.086V606H43.36ZM52 606V597.666H53.8V598.944C54.004 598.644 54.232 598.386 54.484 598.17C54.736 597.954 55.018 597.786 55.33 597.666C55.642 597.534 55.978 597.468 56.338 597.468C56.806 597.468 57.238 597.588 57.634 597.828C58.03 598.068 58.348 598.446 58.588 598.962C58.828 599.466 58.948 600.138 58.948 600.978V606H57.166V600.996C57.166 600.504 57.112 600.102 57.004 599.79C56.896 599.478 56.74 599.25 56.536 599.106C56.344 598.962 56.11 598.89 55.834 598.89C55.594 598.89 55.354 598.944 55.114 599.052C54.874 599.16 54.652 599.31 54.448 599.502C54.256 599.682 54.1 599.91 53.98 600.186C53.86 600.45 53.8 600.75 53.8 601.086V606H52ZM64.438 606.198C63.838 606.198 63.286 606.102 62.782 605.91C62.278 605.718 61.84 605.442 61.468 605.082C61.108 604.71 60.826 604.254 60.622 603.714C60.418 603.174 60.316 602.562 60.316 601.878C60.316 601.182 60.418 600.564 60.622 600.024C60.826 599.472 61.102 599.01 61.45 598.638C61.81 598.266 62.224 597.978 62.692 597.774C63.172 597.57 63.682 597.468 64.222 597.468C64.69 597.468 65.134 597.552 65.554 597.72C65.986 597.888 66.358 598.14 66.67 598.476C66.994 598.8 67.246 599.214 67.426 599.718C67.618 600.222 67.714 600.81 67.714 601.482C67.714 601.602 67.714 601.74 67.714 601.896C67.714 602.04 67.708 602.166 67.696 602.274H62.044C62.068 602.706 62.152 603.084 62.296 603.408C62.44 603.72 62.62 603.978 62.836 604.182C63.064 604.386 63.322 604.536 63.61 604.632C63.898 604.728 64.198 604.776 64.51 604.776C64.786 604.776 65.038 604.752 65.266 604.704C65.506 604.644 65.734 604.554 65.95 604.434C66.166 604.314 66.364 604.152 66.544 603.948L67.48 604.866C67.228 605.166 66.946 605.418 66.634 605.622C66.322 605.814 65.98 605.958 65.608 606.054C65.248 606.15 64.858 606.198 64.438 606.198ZM62.08 600.924H65.968C65.968 600.588 65.926 600.294 65.842 600.042C65.758 599.79 65.632 599.574 65.464 599.394C65.308 599.214 65.116 599.082 64.888 598.998C64.66 598.902 64.408 598.854 64.132 598.854C63.868 598.854 63.622 598.896 63.394 598.98C63.178 599.064 62.98 599.19 62.8 599.358C62.62 599.526 62.464 599.742 62.332 600.006C62.212 600.258 62.128 600.564 62.08 600.924ZM73.258 606.198C72.646 606.198 72.076 606.096 71.548 605.892C71.032 605.676 70.582 605.376 70.198 604.992C69.826 604.596 69.532 604.14 69.316 603.624C69.112 603.096 69.01 602.52 69.01 601.896C69.01 601.272 69.112 600.696 69.316 600.168C69.532 599.628 69.826 599.16 70.198 598.764C70.582 598.368 71.032 598.062 71.548 597.846C72.076 597.618 72.64 597.504 73.24 597.504C73.984 597.504 74.632 597.642 75.184 597.918C75.748 598.194 76.204 598.584 76.552 599.088L75.526 600.168L75.4 600.294L75.292 600.186C75.28 600.09 75.256 600 75.22 599.916C75.196 599.82 75.118 599.694 74.986 599.538C74.746 599.322 74.482 599.172 74.194 599.088C73.906 598.992 73.576 598.944 73.204 598.944C72.892 598.944 72.592 599.01 72.304 599.142C72.028 599.274 71.776 599.466 71.548 599.718C71.332 599.97 71.158 600.276 71.026 600.636C70.894 600.996 70.828 601.398 70.828 601.842C70.828 602.274 70.894 602.67 71.026 603.03C71.158 603.378 71.338 603.678 71.566 603.93C71.794 604.17 72.058 604.362 72.358 604.506C72.67 604.638 72.994 604.704 73.33 604.704C73.594 604.704 73.846 604.674 74.086 604.614C74.338 604.542 74.578 604.434 74.806 604.29C75.034 604.134 75.25 603.936 75.454 603.696L76.444 604.848C76.012 605.316 75.514 605.658 74.95 605.874C74.398 606.09 73.834 606.198 73.258 606.198ZM82.222 606.162C81.73 606.162 81.304 606.084 80.944 605.928C80.596 605.76 80.314 605.496 80.098 605.136C79.894 604.776 79.75 604.308 79.666 603.732C79.582 603.156 79.552 602.454 79.576 601.626L79.81 595.65L81.646 595.416L81.826 595.398L81.844 595.56C81.784 595.644 81.73 595.728 81.682 595.812C81.646 595.896 81.616 596.04 81.592 596.244L81.412 598.566L81.484 598.764L81.358 601.626C81.322 602.442 81.346 603.078 81.43 603.534C81.514 603.978 81.658 604.29 81.862 604.47C82.066 604.638 82.312 604.722 82.6 604.722C82.984 604.722 83.326 604.644 83.626 604.488C83.938 604.332 84.244 604.14 84.544 603.912L84.94 605.244C84.532 605.544 84.106 605.772 83.662 605.928C83.218 606.084 82.738 606.162 82.222 606.162ZM77.956 597.666H84.238L84.22 599.106H77.956V597.666ZM96.388 609.15C95.992 609.15 95.638 609.084 95.326 608.952C95.014 608.832 94.714 608.646 94.426 608.394L95.092 607.17L95.182 607.026L95.308 607.098C95.344 607.182 95.386 607.26 95.434 607.332C95.494 607.416 95.608 607.518 95.776 607.638C95.872 607.674 95.974 607.698 96.082 607.71C96.19 607.734 96.298 607.746 96.406 607.746C96.682 607.746 96.916 607.674 97.108 607.53C97.3 607.398 97.468 607.188 97.612 606.9C97.768 606.612 97.924 606.24 98.08 605.784L99.808 600.744C99.988 600.216 100.144 599.706 100.276 599.214C100.42 598.71 100.51 598.194 100.546 597.666H102.238C102.19 598.218 102.064 598.788 101.86 599.376C101.668 599.964 101.47 600.534 101.266 601.086L99.196 606.792C98.884 607.668 98.494 608.28 98.026 608.628C97.558 608.976 97.012 609.15 96.388 609.15ZM94.768 597.666H96.586L99.106 604.218L98.206 606.198L94.768 597.666ZM107.26 606.18C106.504 606.18 105.832 606 105.244 605.64C104.656 605.268 104.188 604.758 103.84 604.11C103.492 603.45 103.318 602.694 103.318 601.842C103.318 601.002 103.492 600.258 103.84 599.61C104.188 598.95 104.656 598.434 105.244 598.062C105.832 597.678 106.504 597.486 107.26 597.486C108.004 597.486 108.67 597.678 109.258 598.062C109.858 598.434 110.332 598.95 110.68 599.61C111.028 600.258 111.202 601.002 111.202 601.842C111.202 602.682 111.028 603.432 110.68 604.092C110.332 604.74 109.858 605.25 109.258 605.622C108.67 605.994 108.004 606.18 107.26 606.18ZM107.26 604.722C107.668 604.722 108.028 604.602 108.34 604.362C108.664 604.11 108.916 603.768 109.096 603.336C109.276 602.904 109.366 602.4 109.366 601.824C109.366 601.236 109.276 600.726 109.096 600.294C108.916 599.862 108.664 599.526 108.34 599.286C108.028 599.046 107.668 598.926 107.26 598.926C106.852 598.926 106.486 599.046 106.162 599.286C105.85 599.526 105.604 599.862 105.424 600.294C105.244 600.726 105.154 601.236 105.154 601.824C105.154 602.4 105.244 602.904 105.424 603.336C105.604 603.768 105.85 604.11 106.162 604.362C106.486 604.602 106.852 604.722 107.26 604.722ZM115.27 606.198C114.934 606.198 114.616 606.15 114.316 606.054C114.028 605.97 113.764 605.832 113.524 605.64C113.284 605.448 113.074 605.208 112.894 604.92C112.726 604.632 112.594 604.284 112.498 603.876C112.414 603.468 112.372 603.006 112.372 602.49L112.39 597.666H114.154V602.49C114.154 602.91 114.19 603.27 114.262 603.57C114.346 603.858 114.454 604.092 114.586 604.272C114.73 604.452 114.892 604.584 115.072 604.668C115.252 604.74 115.444 604.776 115.648 604.776C115.912 604.776 116.158 604.728 116.386 604.632C116.614 604.536 116.812 604.392 116.98 604.2C117.16 603.996 117.292 603.744 117.376 603.444C117.472 603.132 117.52 602.772 117.52 602.364V597.666H119.32V604.686C119.32 604.926 119.326 605.154 119.338 605.37C119.362 605.574 119.416 605.784 119.5 606H117.826C117.766 605.868 117.724 605.742 117.7 605.622C117.676 605.49 117.658 605.364 117.646 605.244C117.646 605.112 117.646 604.98 117.646 604.848C117.526 605.076 117.376 605.274 117.196 605.442C117.028 605.61 116.836 605.754 116.62 605.874C116.416 605.982 116.2 606.06 115.972 606.108C115.756 606.168 115.522 606.198 115.27 606.198ZM121.822 597.666H123.676L123.64 600.042L123.424 599.844C123.484 599.484 123.598 599.16 123.766 598.872C123.934 598.572 124.138 598.32 124.378 598.116C124.63 597.912 124.906 597.756 125.206 597.648C125.506 597.528 125.818 597.468 126.142 597.468C126.598 597.468 127.012 597.546 127.384 597.702C127.756 597.858 128.092 598.092 128.392 598.404L127.636 599.88L127.564 600.042L127.42 599.97C127.384 599.874 127.348 599.778 127.312 599.682C127.276 599.586 127.186 599.472 127.042 599.34C126.862 599.22 126.682 599.13 126.502 599.07C126.334 599.01 126.136 598.98 125.908 598.98C125.62 598.98 125.338 599.034 125.062 599.142C124.798 599.238 124.558 599.394 124.342 599.61C124.126 599.826 123.952 600.102 123.82 600.438C123.7 600.762 123.64 601.158 123.64 601.626V606.018H121.822V597.666ZM139.102 606.018L137.536 597.666H139.066L140.146 603.696L141.424 598.548H142.396L143.908 603.66C144.028 602.772 144.13 602.034 144.214 601.446C144.298 600.846 144.358 600.348 144.394 599.952C144.43 599.544 144.454 599.202 144.466 598.926C144.478 598.638 144.484 598.356 144.484 598.08V597.666H146.05C145.966 598.566 145.858 599.49 145.726 600.438C145.594 601.386 145.444 602.334 145.276 603.282C145.108 604.218 144.934 605.13 144.754 606.018H143.17L141.892 601.212L140.686 606.018H139.102ZM149.596 606.198C148.672 606.198 147.952 605.988 147.436 605.568C146.932 605.136 146.68 604.578 146.68 603.894C146.68 603.438 146.782 603.03 146.986 602.67C147.202 602.298 147.502 601.98 147.886 601.716C148.282 601.452 148.756 601.248 149.308 601.104C149.86 600.948 150.484 600.87 151.18 600.87C151.324 600.87 151.474 600.876 151.63 600.888C151.798 600.888 151.972 600.894 152.152 600.906C152.344 600.918 152.536 600.93 152.728 600.942L152.782 602.22C152.614 602.196 152.434 602.178 152.242 602.166C152.062 602.154 151.882 602.148 151.702 602.148C151.522 602.148 151.354 602.148 151.198 602.148C150.73 602.148 150.322 602.184 149.974 602.256C149.638 602.316 149.356 602.412 149.128 602.544C148.912 602.676 148.75 602.838 148.642 603.03C148.534 603.222 148.48 603.444 148.48 603.696C148.48 603.9 148.516 604.08 148.588 604.236C148.66 604.38 148.756 604.494 148.876 604.578C149.008 604.662 149.158 604.728 149.326 604.776C149.506 604.812 149.698 604.83 149.902 604.83C150.298 604.83 150.646 604.764 150.946 604.632C151.246 604.5 151.498 604.308 151.702 604.056C151.918 603.792 152.08 603.468 152.188 603.084C152.296 602.688 152.35 602.226 152.35 601.698C152.35 600.966 152.266 600.396 152.098 599.988C151.942 599.58 151.708 599.298 151.396 599.142C151.084 598.986 150.694 598.908 150.226 598.908C149.842 598.908 149.47 598.974 149.11 599.106C148.762 599.226 148.42 599.454 148.084 599.79L147.13 598.71C147.586 598.278 148.084 597.966 148.624 597.774C149.176 597.582 149.74 597.486 150.316 597.486C150.844 597.486 151.33 597.552 151.774 597.684C152.23 597.804 152.626 598.008 152.962 598.296C153.31 598.584 153.574 598.974 153.754 599.466C153.946 599.958 154.042 600.582 154.042 601.338V606H152.17V604.974C152.014 605.214 151.84 605.418 151.648 605.586C151.456 605.742 151.246 605.868 151.018 605.964C150.802 606.048 150.574 606.108 150.334 606.144C150.094 606.18 149.848 606.198 149.596 606.198ZM155.824 606V604.578H158.2V595.38H155.932V593.958H160.018V604.578H162.376V606H155.824ZM164.464 606V604.578H166.84V595.38H164.572V593.958H168.658V604.578H171.016V606H164.464ZM176.758 606.198C176.158 606.198 175.606 606.102 175.102 605.91C174.598 605.718 174.16 605.442 173.788 605.082C173.428 604.71 173.146 604.254 172.942 603.714C172.738 603.174 172.636 602.562 172.636 601.878C172.636 601.182 172.738 600.564 172.942 600.024C173.146 599.472 173.422 599.01 173.77 598.638C174.13 598.266 174.544 597.978 175.012 597.774C175.492 597.57 176.002 597.468 176.542 597.468C177.01 597.468 177.454 597.552 177.874 597.72C178.306 597.888 178.678 598.14 178.99 598.476C179.314 598.8 179.566 599.214 179.746 599.718C179.938 600.222 180.034 600.81 180.034 601.482C180.034 601.602 180.034 601.74 180.034 601.896C180.034 602.04 180.028 602.166 180.016 602.274H174.364C174.388 602.706 174.472 603.084 174.616 603.408C174.76 603.72 174.94 603.978 175.156 604.182C175.384 604.386 175.642 604.536 175.93 604.632C176.218 604.728 176.518 604.776 176.83 604.776C177.106 604.776 177.358 604.752 177.586 604.704C177.826 604.644 178.054 604.554 178.27 604.434C178.486 604.314 178.684 604.152 178.864 603.948L179.8 604.866C179.548 605.166 179.266 605.418 178.954 605.622C178.642 605.814 178.3 605.958 177.928 606.054C177.568 606.15 177.178 606.198 176.758 606.198ZM174.4 600.924H178.288C178.288 600.588 178.246 600.294 178.162 600.042C178.078 599.79 177.952 599.574 177.784 599.394C177.628 599.214 177.436 599.082 177.208 598.998C176.98 598.902 176.728 598.854 176.452 598.854C176.188 598.854 175.942 598.896 175.714 598.98C175.498 599.064 175.3 599.19 175.12 599.358C174.94 599.526 174.784 599.742 174.652 600.006C174.532 600.258 174.448 600.564 174.4 600.924ZM185.902 606.162C185.41 606.162 184.984 606.084 184.624 605.928C184.276 605.76 183.994 605.496 183.778 605.136C183.574 604.776 183.43 604.308 183.346 603.732C183.262 603.156 183.232 602.454 183.256 601.626L183.49 595.65L185.326 595.416L185.506 595.398L185.524 595.56C185.464 595.644 185.41 595.728 185.362 595.812C185.326 595.896 185.296 596.04 185.272 596.244L185.092 598.566L185.164 598.764L185.038 601.626C185.002 602.442 185.026 603.078 185.11 603.534C185.194 603.978 185.338 604.29 185.542 604.47C185.746 604.638 185.992 604.722 186.28 604.722C186.664 604.722 187.006 604.644 187.306 604.488C187.618 604.332 187.924 604.14 188.224 603.912L188.62 605.244C188.212 605.544 187.786 605.772 187.342 605.928C186.898 606.084 186.418 606.162 185.902 606.162ZM181.636 597.666H187.918L187.9 599.106H181.636V597.666Z" fill="black"/>
<path d="M251.753 603.964C251.692 603.902 251.712 603.781 251.8 603.694L258.143 597.35H253.101V595.925L259.136 595.925L260.575 597.364L260.576 603.399L259.15 603.4V598.357L252.806 604.701C252.719 604.788 252.598 604.808 252.536 604.747L251.753 603.964Z" fill="black"/>
</svg>
